<svg width="14" height="10" viewBox="0 0 14 10" fill="none" xmlns="http://www.w3.org/2000/svg">
<path fill-rule="evenodd" clip-rule="evenodd" d="M8.19564 9.70071C8.58263 10.0947 9.21577 10.1004 9.6098 9.71345L13.7007 5.71345C13.8922 5.52542 14 5.26834 14 5C14 4.73166 13.8922 4.47458 13.7007 4.28655L9.6098 0.28655C9.21577 -0.100441 8.58263 -0.0947366 8.19564 0.29929C7.80865 0.693317 7.81435 1.32646 8.20838 1.71345L10.5547 4L0.999999 4C0.447714 4 -9.70792e-07 4.44771 -8.74228e-07 5C-7.77663e-07 5.55228 0.447715 6 0.999999 6L10.5547 6L8.20838 8.28655C7.81435 8.67354 7.80865 9.30668 8.19564 9.70071Z" fill="#121211"/>
</svg>
