<svg width="20" height="20" viewBox="0 0 20 20" fill="none" xmlns="http://www.w3.org/2000/svg">
<path fill-rule="evenodd" clip-rule="evenodd" d="M1 0C0.447715 0 0 0.447715 0 1C0 1.55228 0.447715 2 1 2V1L1.00001 2H1.00005H1.00021H1.00085H1.00337H1.00754H1.01331H1.02953H1.05176H1.19531H1.6875H2.12448L3.00877 8.63216L3.01163 8.65206L3.46583 11.6044L2.09204 14.5809C1.94913 14.8906 1.97387 15.2517 2.15766 15.539C2.34146 15.8262 2.65898 16 3 16H7C5.89543 16 5 16.8954 5 18C5 19.1046 5.89543 20 7 20C8.10457 20 9 19.1046 9 18C9 16.8954 8.10457 16 7 16H14C12.8954 16 12 16.8954 12 18C12 19.1046 12.8954 20 14 20C15.1046 20 16 19.1046 16 18C16 16.8954 15.1046 16 14 16H16.5C17.0523 16 17.5 15.5523 17.5 15C17.5 14.4477 17.0523 14 16.5 14H4.56291L5.02445 13H16C16.4304 13 16.8126 12.7246 16.9487 12.3162L19.9487 3.31623C20.0503 3.01128 19.9992 2.67606 19.8112 2.41529C19.6233 2.15452 19.3214 2 19 2H4.14218L3.99123 0.867836C3.92499 0.37103 3.5012 0 3 0H1.6875H1.19531H1.05176H1.01331H1.00337H1.0019H1.00132H1.00107H1.00085H1.00048H1.00033H1.00021H1.00005H1.00001L1 1V0ZM4.40885 4L4.9899 8.35788L5.39638 11H15.2792L17.6126 4H4.40885Z" fill="black"/>
</svg>
