<svg width="22" height="22" viewBox="0 0 22 22" fill="none" xmlns="http://www.w3.org/2000/svg">
<path fill-rule="evenodd" clip-rule="evenodd" d="M11.7753 1.75068C12.9069 0.657729 14.4225 0.0529626 15.9957 0.0666331C17.5689 0.0803036 19.0738 0.711317 20.1862 1.82377C21.2986 2.93621 21.9297 4.44109 21.9433 6.01427C21.957 7.58745 21.3522 9.10306 20.2593 10.2347L20.2471 10.2471L17.2472 13.2469C16.639 13.8554 15.907 14.326 15.1008 14.6267C14.2947 14.9274 13.4334 15.0512 12.5752 14.9897C11.717 14.9283 10.8821 14.683 10.1271 14.2705C9.37206 13.858 8.71458 13.2879 8.19923 12.5989C7.86843 12.1567 7.95877 11.53 8.40102 11.1992C8.84327 10.8684 9.46996 10.9587 9.80076 11.401C10.1443 11.8603 10.5826 12.2403 11.086 12.5153C11.5894 12.7903 12.146 12.9539 12.7181 12.9949C13.2902 13.0358 13.8644 12.9533 14.4018 12.7528C14.9392 12.5523 15.4273 12.2386 15.8328 11.833L15.8329 11.8329L18.8264 8.83934C19.5514 8.08557 19.9525 7.0777 19.9434 6.03165C19.9343 4.98286 19.5136 3.97961 18.772 3.23798C18.0304 2.49635 17.0271 2.07567 15.9783 2.06656C14.9318 2.05746 13.9235 2.45887 13.1696 3.1845L11.455 4.88913C11.0634 5.27851 10.4302 5.27667 10.0408 4.88501C9.65145 4.49335 9.6533 3.86018 10.045 3.4708L11.765 1.7608L11.7753 1.75068Z" fill="#1B1B1B"/>
<path fill-rule="evenodd" clip-rule="evenodd" d="M6.89914 7.37326C7.70525 7.07256 8.5666 6.94874 9.42477 7.0102C10.2829 7.07166 11.1179 7.31697 11.8729 7.72947C12.6279 8.14198 13.2854 8.71205 13.8008 9.401C14.1316 9.84325 14.0412 10.4699 13.599 10.8007C13.1567 11.1316 12.53 11.0412 12.1992 10.599C11.8557 10.1397 11.4173 9.75961 10.914 9.48461C10.4106 9.2096 9.85402 9.04607 9.2819 9.00509C8.70979 8.96412 8.13555 9.04667 7.59814 9.24713C7.06074 9.4476 6.57273 9.7613 6.16722 10.167L3.17358 13.1606C2.44854 13.9144 2.04749 14.9222 2.05658 15.9683C2.06569 17.0171 2.48637 18.0203 3.228 18.762C3.96963 19.5036 4.97288 19.9243 6.02167 19.9334C7.06771 19.9425 8.07558 19.5414 8.82935 18.8164L10.5329 17.1129C10.9234 16.7223 11.5566 16.7223 11.9471 17.1129C12.3376 17.5034 12.3376 18.1366 11.9471 18.5271L10.2371 20.2371L10.2247 20.2493C9.09308 21.3422 7.57747 21.947 6.00429 21.9333C4.43111 21.9196 2.92624 21.2886 1.81379 20.1762C0.701338 19.0637 0.0703243 17.5589 0.0566538 15.9857C0.0429833 14.4125 0.647749 12.8969 1.7407 11.7653L1.75288 11.7529L4.75275 8.753C4.75279 8.75296 4.75271 8.75305 4.75275 8.753C5.36099 8.14458 6.09308 7.67395 6.89914 7.37326Z" fill="#1B1B1B"/>
</svg>
