<svg width="21" height="4" viewBox="0 0 21 4" fill="none" xmlns="http://www.w3.org/2000/svg">
<path d="M4.5 2C4.5 3.10457 3.60457 4 2.5 4C1.39543 4 0.5 3.10457 0.5 2C0.5 0.89543 1.39543 0 2.5 0C3.60457 0 4.5 0.89543 4.5 2Z" fill="#121211"/>
<path d="M12.5 2C12.5 3.10457 11.6046 4 10.5 4C9.39543 4 8.5 3.10457 8.5 2C8.5 0.89543 9.39543 0 10.5 0C11.6046 0 12.5 0.89543 12.5 2Z" fill="#121211"/>
<path d="M20.5 2C20.5 3.10457 19.6046 4 18.5 4C17.3954 4 16.5 3.10457 16.5 2C16.5 0.89543 17.3954 0 18.5 0C19.6046 0 20.5 0.89543 20.5 2Z" fill="#121211"/>
</svg>
