<svg width="26" height="26" viewBox="0 0 26 26" fill="none" xmlns="http://www.w3.org/2000/svg">
<path d="M13 2.3494C16.4458 2.3494 16.9157 2.3494 18.3253 2.3494C19.5783 2.3494 20.2048 2.66265 20.6747 2.81928C21.3012 3.13253 21.7711 3.28916 22.241 3.75904C22.7108 4.22892 23.0241 4.6988 23.1807 5.3253C23.3374 5.79518 23.494 6.42169 23.6506 7.6747C23.6506 9.08434 23.6506 9.39759 23.6506 13C23.6506 16.6024 23.6506 16.9157 23.6506 18.3253C23.6506 19.5783 23.3374 20.2048 23.1807 20.6747C22.8675 21.3012 22.7108 21.7711 22.241 22.241C21.7711 22.7108 21.3012 23.0241 20.6747 23.1807C20.2048 23.3374 19.5783 23.494 18.3253 23.6506C16.9157 23.6506 16.6024 23.6506 13 23.6506C9.39759 23.6506 9.08434 23.6506 7.6747 23.6506C6.42169 23.6506 5.79518 23.3374 5.3253 23.1807C4.6988 22.8675 4.22892 22.7108 3.75904 22.241C3.28916 21.7711 2.9759 21.3012 2.81928 20.6747C2.66265 20.2048 2.50602 19.5783 2.3494 18.3253C2.3494 16.9157 2.3494 16.6024 2.3494 13C2.3494 9.39759 2.3494 9.08434 2.3494 7.6747C2.3494 6.42169 2.66265 5.79518 2.81928 5.3253C3.13253 4.6988 3.28916 4.22892 3.75904 3.75904C4.22892 3.28916 4.6988 2.9759 5.3253 2.81928C5.79518 2.66265 6.42169 2.50602 7.6747 2.3494C9.08434 2.3494 9.55422 2.3494 13 2.3494ZM13 0C9.39759 0 9.08434 0 7.6747 0C6.26506 0 5.3253 0.313254 4.54217 0.626507C3.75904 0.93976 2.9759 1.40964 2.19277 2.19277C1.40964 2.9759 1.09639 3.60241 0.626507 4.54217C0.313254 5.3253 0.156627 6.26506 0 7.6747C0 9.08434 0 9.55422 0 13C0 16.6024 0 16.9157 0 18.3253C0 19.7349 0.313254 20.6747 0.626507 21.4578C0.93976 22.241 1.40964 23.0241 2.19277 23.8072C2.9759 24.5904 3.60241 24.9036 4.54217 25.3735C5.3253 25.6868 6.26506 25.8434 7.6747 26C9.08434 26 9.55422 26 13 26C16.4458 26 16.9157 26 18.3253 26C19.7349 26 20.6747 25.6868 21.4578 25.3735C22.241 25.0602 23.0241 24.5904 23.8072 23.8072C24.5904 23.0241 24.9036 22.3976 25.3735 21.4578C25.6868 20.6747 25.8434 19.7349 26 18.3253C26 16.9157 26 16.4458 26 13C26 9.55422 26 9.08434 26 7.6747C26 6.26506 25.6868 5.3253 25.3735 4.54217C25.0602 3.75904 24.5904 2.9759 23.8072 2.19277C23.0241 1.40964 22.3976 1.09639 21.4578 0.626507C20.6747 0.313254 19.7349 0.156627 18.3253 0C16.9157 0 16.6024 0 13 0Z" fill="white"/>
<path d="M13 6.26506C9.24096 6.26506 6.26506 9.24096 6.26506 13C6.26506 16.759 9.24096 19.7349 13 19.7349C16.759 19.7349 19.7349 16.759 19.7349 13C19.7349 9.24096 16.759 6.26506 13 6.26506ZM13 17.3855C10.6506 17.3855 8.61446 15.506 8.61446 13C8.61446 10.6506 10.494 8.61446 13 8.61446C15.3494 8.61446 17.3855 10.494 17.3855 13C17.3855 15.3494 15.3494 17.3855 13 17.3855Z" fill="white"/>
<path d="M19.8916 7.6747C20.7566 7.6747 21.4578 6.97346 21.4578 6.10844C21.4578 5.24341 20.7566 4.54217 19.8916 4.54217C19.0265 4.54217 18.3253 5.24341 18.3253 6.10844C18.3253 6.97346 19.0265 7.6747 19.8916 7.6747Z" fill="white"/>
</svg>
