<svg width="20" height="17" viewBox="0 0 20 17" fill="none" xmlns="http://www.w3.org/2000/svg">
<path d="M0.504473 7.06067L9.50024 12.2582C9.65218 12.346 9.82455 12.3922 10 12.3922C10.1755 12.3922 10.3478 12.346 10.4998 12.2582L19.4955 7.06067C19.647 6.97281 19.7727 6.84669 19.8601 6.69496C19.9475 6.54322 19.9935 6.37118 19.9935 6.19608C19.9935 6.02097 19.9475 5.84893 19.8601 5.6972C19.7727 5.54546 19.647 5.41935 19.4955 5.33148L10.4998 0.133912C10.3478 0.0461849 10.1755 0 10 0C9.82455 0 9.65218 0.0461849 9.50024 0.133912L0.504473 5.33148C0.353005 5.41935 0.227278 5.54546 0.139879 5.6972C0.0524812 5.84893 0.00647916 6.02097 0.00647916 6.19608C0.00647916 6.37118 0.0524812 6.54322 0.139879 6.69496C0.227278 6.84669 0.353005 6.97281 0.504473 7.06067ZM10 2.15297L16.9967 6.1511L10 10.1992L3.0033 6.19108L10 2.15297ZM18.496 9.93933L10 14.847L1.504 9.93933C1.39052 9.87282 1.26502 9.82938 1.13471 9.81147C1.00441 9.79357 0.871844 9.80156 0.74463 9.83499C0.617415 9.86842 0.498049 9.92663 0.393376 10.0063C0.288702 10.0859 0.200779 10.1855 0.134647 10.2992C0.0685591 10.4132 0.0256931 10.5393 0.00851787 10.67C-0.00865736 10.8007 0.000197429 10.9335 0.0345724 11.0608C0.0689473 11.1881 0.128163 11.3073 0.20881 11.4116C0.289456 11.5159 0.389939 11.6032 0.504473 11.6685L9.50024 16.8661C9.65218 16.9538 9.82455 17 10 17C10.1755 17 10.3478 16.9538 10.4998 16.8661L19.4955 11.6685C19.6101 11.6032 19.7105 11.5159 19.7912 11.4116C19.8718 11.3073 19.9311 11.1881 19.9654 11.0608C19.9998 10.9335 20.0087 10.8007 19.9915 10.67C19.9743 10.5393 19.9314 10.4132 19.8654 10.2992C19.7992 10.1855 19.7113 10.0859 19.6066 10.0063C19.502 9.92663 19.3826 9.86842 19.2554 9.83499C19.1282 9.80156 18.9956 9.79357 18.8653 9.81147C18.735 9.82938 18.6095 9.87282 18.496 9.93933Z" fill="#121211"/>
</svg>
