<svg width="20" height="21" viewBox="0 0 20 21" fill="none" xmlns="http://www.w3.org/2000/svg">
<path d="M7.00001 11.0001H5.00001C4.73479 11.0001 4.48044 11.1054 4.2929 11.293C4.10537 11.4805 4.00001 11.7349 4.00001 12.0001C4.00001 12.2653 4.10537 12.5196 4.2929 12.7072C4.48044 12.8947 4.73479 13.0001 5.00001 13.0001H7.00001C7.26522 13.0001 7.51958 12.8947 7.70711 12.7072C7.89465 12.5196 8.00001 12.2653 8.00001 12.0001C8.00001 11.7349 7.89465 11.4805 7.70711 11.293C7.51958 11.1054 7.26522 11.0001 7.00001 11.0001ZM6.00001 9.00007H10C10.2652 9.00007 10.5196 8.89471 10.7071 8.70717C10.8947 8.51964 11 8.26528 11 8.00007C11 7.73485 10.8947 7.4805 10.7071 7.29296C10.5196 7.10543 10.2652 7.00007 10 7.00007H6.00001C5.73479 7.00007 5.48044 7.10543 5.2929 7.29296C5.10537 7.4805 5.00001 7.73485 5.00001 8.00007C5.00001 8.26528 5.10537 8.51964 5.2929 8.70717C5.48044 8.89471 5.73479 9.00007 6.00001 9.00007ZM7.00001 15.0001H5.00001C4.73479 15.0001 4.48044 15.1054 4.2929 15.293C4.10537 15.4805 4.00001 15.7349 4.00001 16.0001C4.00001 16.2653 4.10537 16.5196 4.2929 16.7072C4.48044 16.8947 4.73479 17.0001 5.00001 17.0001H7.00001C7.26522 17.0001 7.51958 16.8947 7.70711 16.7072C7.89465 16.5196 8.00001 16.2653 8.00001 16.0001C8.00001 15.7349 7.89465 15.4805 7.70711 15.293C7.51958 15.1054 7.26522 15.0001 7.00001 15.0001ZM19 11.0001H16V2.00007C16.0007 1.82386 15.9548 1.65059 15.867 1.49781C15.7792 1.34504 15.6526 1.21817 15.5 1.13007C15.348 1.0423 15.1755 0.996094 15 0.996094C14.8245 0.996094 14.652 1.0423 14.5 1.13007L11.5 2.85007L8.50001 1.13007C8.34799 1.0423 8.17554 0.996094 8.00001 0.996094C7.82447 0.996094 7.65203 1.0423 7.50001 1.13007L4.50001 2.85007L1.50001 1.13007C1.34799 1.0423 1.17554 0.996094 1.00001 0.996094C0.824471 0.996094 0.652027 1.0423 0.500008 1.13007C0.347404 1.21817 0.220789 1.34504 0.132986 1.49781C0.0451828 1.65059 -0.000691685 1.82386 7.88288e-06 2.00007V18.0001C7.88288e-06 18.7957 0.316078 19.5588 0.878688 20.1214C1.4413 20.684 2.20436 21.0001 3.00001 21.0001H17C17.7957 21.0001 18.5587 20.684 19.1213 20.1214C19.6839 19.5588 20 18.7957 20 18.0001V12.0001C20 11.7349 19.8947 11.4805 19.7071 11.293C19.5196 11.1054 19.2652 11.0001 19 11.0001ZM3.00001 19.0001C2.73479 19.0001 2.48044 18.8947 2.2929 18.7072C2.10536 18.5196 2.00001 18.2653 2.00001 18.0001V3.73007L4.00001 4.87007C4.15435 4.95068 4.32589 4.99278 4.50001 4.99278C4.67413 4.99278 4.84567 4.95068 5.00001 4.87007L8.00001 3.15007L11 4.87007C11.1543 4.95068 11.3259 4.99278 11.5 4.99278C11.6741 4.99278 11.8457 4.95068 12 4.87007L14 3.73007V18.0001C14.0027 18.3412 14.0636 18.6794 14.18 19.0001H3.00001ZM18 18.0001C18 18.2653 17.8947 18.5196 17.7071 18.7072C17.5196 18.8947 17.2652 19.0001 17 19.0001C16.7348 19.0001 16.4804 18.8947 16.2929 18.7072C16.1054 18.5196 16 18.2653 16 18.0001V13.0001H18V18.0001ZM11.56 15.1701C11.5043 15.1322 11.4437 15.102 11.38 15.0801C11.3205 15.0496 11.2562 15.0293 11.19 15.0201C11.0294 14.9879 10.8633 14.9957 10.7063 15.0428C10.5494 15.0899 10.4064 15.1748 10.29 15.2901C10.1073 15.4817 10.0037 15.7353 10 16.0001C9.99841 16.1301 10.0222 16.2592 10.07 16.3801C10.1244 16.5016 10.1987 16.6131 10.29 16.7101C10.3872 16.7984 10.4988 16.8694 10.62 16.9201C10.7397 16.973 10.8691 17.0003 11 17.0003C11.1309 17.0003 11.2603 16.973 11.38 16.9201C11.5012 16.8694 11.6128 16.7984 11.71 16.7101C11.8027 16.6166 11.876 16.5058 11.9258 16.384C11.9755 16.2621 12.0008 16.1317 12 16.0001C11.9963 15.7353 11.8927 15.4817 11.71 15.2901C11.6625 15.2471 11.6124 15.207 11.56 15.1701ZM11.7 11.2901C11.5832 11.1764 11.4404 11.0929 11.2841 11.047C11.1277 11.0011 10.9624 10.9941 10.8027 11.0266C10.643 11.0591 10.4937 11.1302 10.3677 11.2337C10.2418 11.3371 10.143 11.4697 10.08 11.6201C10.0178 11.7716 9.99369 11.936 10.0099 12.099C10.0261 12.262 10.0821 12.4185 10.1729 12.5548C10.2638 12.6911 10.3867 12.8029 10.5309 12.8806C10.6751 12.9582 10.8362 12.9993 11 13.0001C11.2652 13.0001 11.5196 12.8947 11.7071 12.7072C11.8947 12.5196 12 12.2653 12 12.0001C11.9984 11.8694 11.9712 11.7403 11.92 11.6201C11.8718 11.4952 11.7967 11.3826 11.7 11.2901Z" fill="#121211"/>
</svg>
