<svg width="16" height="20" viewBox="0 0 16 20" fill="none" xmlns="http://www.w3.org/2000/svg">
<path fill-rule="evenodd" clip-rule="evenodd" d="M12.129 3.12993L12 3.25348L11.4506 3.77972C11.0679 4.14618 10.4666 4.15042 10.0788 3.78938L8.32705 2.15822C8.14075 1.98474 7.85416 1.97903 7.66113 2.14495L5.71343 3.81905C5.31247 4.16368 4.71314 4.13638 4.34505 3.75672L4 3.40083L3.84757 3.2436L3.19708 2.57267L2.85864 2.22359C2.54581 1.90094 2 2.12284 2 2.57267V3.05934V3.99472V4.21392V15.3692V15.8536V16.9288V17.2782C2 17.7684 2.63021 17.9669 2.91011 17.5648L3.10959 17.2782L3.72346 16.3963L4 15.999L4.07396 15.8928C4.43412 15.3753 5.17616 15.3161 5.61352 15.7699L7.61164 17.8431C7.81876 18.058 8.16636 18.0447 8.35648 17.8145L9.99227 15.8344C10.3944 15.3477 11.1403 15.3508 11.5383 15.8409L12 16.4095L12.2155 16.6748L12.8554 17.4628L13.1122 17.779C13.4092 18.1447 14 17.9343 14 17.4628V17.0552V16.0393V15.6972V4.11013V3.93133V3.03399V2.50989C14 2.06899 13.4726 1.84309 13.1545 2.14774L12.7764 2.50989L12.129 3.12993ZM16 2.50989V17.4628C16 19.8202 13.0458 20.8724 11.5608 19.0437L10.756 18.0527L9.89716 19.0923C8.94658 20.243 7.20855 20.3096 6.17295 19.2351L5.01912 18.0379L4.55055 18.7111C3.15102 20.7217 0 19.7295 0 17.2782V2.57267C0 0.3235 2.72907 -0.785995 4.2932 0.827292L5.12465 1.68488L6.35893 0.623989C7.32411 -0.205604 8.75704 -0.177063 9.68855 0.690313L10.7499 1.6786L11.7725 0.699163C13.363 -0.824097 16 0.305391 16 2.50989ZM4 7.85071C4 7.29734 4.44772 6.84875 5 6.84875H11C11.5523 6.84875 12 7.29734 12 7.85071C12 8.40408 11.5523 8.85267 11 8.85267H5C4.44772 8.85267 4 8.40408 4 7.85071ZM5 10.8566C4.44772 10.8566 4 11.3052 4 11.8585C4 12.4119 4.44772 12.8605 5 12.8605H11C11.5523 12.8605 12 12.4119 12 11.8585C12 11.3052 11.5523 10.8566 11 10.8566H5Z" fill="#121211"/>
</svg>
