<svg width="22" height="18" viewBox="0 0 22 18" fill="none" xmlns="http://www.w3.org/2000/svg">
<path d="M6 1C6 0.447715 6.44772 0 7 0H21C21.5523 0 22 0.447715 22 1C22 1.55228 21.5523 2 21 2H7C6.44772 2 6 1.55228 6 1Z" fill="#121211"/>
<path d="M6 9C6 8.44772 6.44772 8 7 8H21C21.5523 8 22 8.44772 22 9C22 9.55228 21.5523 10 21 10H7C6.44772 10 6 9.55228 6 9Z" fill="#121211"/>
<path d="M6 17C6 16.4477 6.44772 16 7 16H21C21.5523 16 22 16.4477 22 17C22 17.5523 21.5523 18 21 18H7C6.44772 18 6 17.5523 6 17Z" fill="#121211"/>
<path d="M0 1C0 0.447715 0.447715 0 1 0H3C3.55228 0 4 0.447715 4 1C4 1.55228 3.55228 2 3 2H1C0.447715 2 0 1.55228 0 1Z" fill="#121211"/>
<path d="M0 9C0 8.44772 0.447715 8 1 8H3C3.55228 8 4 8.44772 4 9C4 9.55228 3.55228 10 3 10H1C0.447715 10 0 9.55228 0 9Z" fill="#121211"/>
<path d="M0 17C0 16.4477 0.447715 16 1 16H3C3.55228 16 4 16.4477 4 17C4 17.5523 3.55228 18 3 18H1C0.447715 18 0 17.5523 0 17Z" fill="#121211"/>
</svg>
