<svg width="18" height="22" viewBox="0 0 18 22" fill="none" xmlns="http://www.w3.org/2000/svg">
<path d="M17.46 8.62994C17.3196 7.16886 16.8032 5.76903 15.9612 4.56676C15.1191 3.3645 13.9801 2.40077 12.655 1.76944C11.3299 1.1381 9.86388 0.860663 8.39972 0.964146C6.93555 1.06763 5.52314 1.5485 4.3 2.35994C3.2492 3.06259 2.36706 3.98924 1.71695 5.07333C1.06684 6.15743 0.664898 7.37205 0.540003 8.62994C0.417485 9.8796 0.574677 11.1409 1.00017 12.3222C1.42567 13.5036 2.1088 14.5754 3 15.4599L8.3 20.7699C8.39297 20.8637 8.50357 20.9381 8.62543 20.9888C8.74729 21.0396 8.87799 21.0657 9.01 21.0657C9.14201 21.0657 9.27272 21.0396 9.39458 20.9888C9.51644 20.9381 9.62704 20.8637 9.72 20.7699L15 15.4599C15.8912 14.5754 16.5743 13.5036 16.9998 12.3222C17.4253 11.1409 17.5825 9.8796 17.46 8.62994ZM13.6 14.0499L9 18.6499L4.4 14.0499C3.72209 13.372 3.20281 12.5523 2.87947 11.6497C2.55614 10.7471 2.43679 9.78414 2.53 8.82994C2.62382 7.86105 2.93177 6.9251 3.43157 6.08979C3.93138 5.25447 4.61056 4.54065 5.42 3.99994C6.48095 3.29518 7.72631 2.91924 9 2.91924C10.2737 2.91924 11.5191 3.29518 12.58 3.99994C13.387 4.53856 14.0647 5.24922 14.5644 6.08088C15.064 6.91254 15.3733 7.84454 15.47 8.80994C15.5663 9.76737 15.4484 10.7342 15.125 11.6405C14.8016 12.5468 14.2807 13.3698 13.6 14.0499ZM9 4.99994C8.10999 4.99994 7.23996 5.26386 6.49994 5.75833C5.75992 6.2528 5.18314 6.9556 4.84255 7.77787C4.50195 8.60013 4.41284 9.50494 4.58647 10.3778C4.7601 11.2508 5.18869 12.0526 5.81802 12.6819C6.44736 13.3113 7.24918 13.7398 8.1221 13.9135C8.99501 14.0871 9.89981 13.998 10.7221 13.6574C11.5443 13.3168 12.2471 12.74 12.7416 12C13.2361 11.26 13.5 10.39 13.5 9.49994C13.4974 8.30728 13.0224 7.16422 12.1791 6.32088C11.3357 5.47754 10.1927 5.00258 9 4.99994ZM9 11.9999C8.50555 11.9999 8.0222 11.8533 7.61108 11.5786C7.19995 11.3039 6.87952 10.9135 6.6903 10.4567C6.50109 9.99984 6.45158 9.49717 6.54804 9.01222C6.6445 8.52726 6.88261 8.08181 7.23224 7.73218C7.58187 7.38254 8.02732 7.14444 8.51228 7.04798C8.99723 6.95152 9.4999 7.00102 9.95671 7.19024C10.4135 7.37946 10.804 7.69989 11.0787 8.11102C11.3534 8.52214 11.5 9.00549 11.5 9.49994C11.5 10.163 11.2366 10.7989 10.7678 11.2677C10.2989 11.7366 9.66304 11.9999 9 11.9999Z" fill="black"/>
</svg>
