<svg width="35" height="22" viewBox="0 0 35 22" fill="none" xmlns="http://www.w3.org/2000/svg">
<path d="M21.6558 18.831H12.4349V2.25537H21.6558V18.831Z" fill="#ECECEE"/>
<path d="M13.0256 10.5417C13.0256 7.1793 14.5995 4.18413 17.0505 2.25392C15.2581 0.842455 12.9961 0 10.5377 0C4.71775 0 0 4.71963 0 10.5417C0 16.3639 4.71775 21.0835 10.5377 21.0835C12.9961 21.0835 15.2581 20.241 17.0505 18.8296C14.5995 16.8994 13.0256 13.9042 13.0256 10.5417Z" fill="white"/>
<path d="M34.0917 10.5417C34.0917 16.3639 29.374 21.0835 23.554 21.0835C21.0956 21.0835 18.8336 20.241 17.0405 18.8296C19.4922 16.8994 21.0661 13.9042 21.0661 10.5417C21.0661 7.1793 19.4922 4.18413 17.0405 2.25392C18.8336 0.842455 21.0956 0 23.554 0C29.374 0 34.0917 4.71963 34.0917 10.5417Z" fill="white"/>
</svg>
