<svg width="45" height="12" viewBox="0 0 45 12" fill="none" xmlns="http://www.w3.org/2000/svg">
<path d="M40.3738 0H31.7103C32.215 2.63227 34.9907 5.1097 38.0187 5.1097H44.9159C45 4.87744 45 4.49034 45 4.25808C45 1.93549 42.8972 0 40.3738 0Z" fill="white"/>
<path d="M32.4672 5.57411V11.9999H36.6728V8.59347H40.3738C42.3925 8.59347 44.1588 7.27734 44.7476 5.57411H32.4672Z" fill="white"/>
<path d="M17.6636 0V11.9226H21.3645C21.3645 11.9226 22.2897 11.9226 22.7944 11.071C25.3178 6.50325 26.0748 5.1097 26.0748 5.1097H26.5795V11.9226H30.7851V0H27.0841C27.0841 0 26.1589 0.0774244 25.6542 0.851621C23.5514 4.80002 22.3739 6.81293 22.3739 6.81293H21.8692V0H17.6636Z" fill="white"/>
<path d="M0 12V0.0773775H4.20561C4.20561 0.0773775 5.38319 0.077375 6.05608 1.78061C7.73833 6.27095 7.90656 6.89031 7.90656 6.89031C7.90656 6.89031 8.243 5.80643 9.75701 1.78061C10.4299 0.077375 11.6075 0.0773775 11.6075 0.0773775H15.8131V12H11.6075V5.57418H11.1028L8.74768 12H6.89721L4.54208 5.57418H4.0374V12H0Z" fill="white"/>
</svg>
