<svg width="20" height="20" viewBox="0 0 20 20" fill="none" xmlns="http://www.w3.org/2000/svg">
<path fill-rule="evenodd" clip-rule="evenodd" d="M4.94986 12.1961C4.11207 12.1961 3.4329 12.8949 3.4329 13.7569C3.4329 14.6189 4.11207 15.3177 4.94986 15.3177C5.78765 15.3177 6.46681 14.6189 6.46681 13.7569C6.46681 12.8949 5.78765 12.1961 4.94986 12.1961ZM10.0064 12.1961C9.16858 12.1961 8.48942 12.8949 8.48942 13.7569C8.48942 14.6189 9.16858 15.3177 10.0064 15.3177C10.8442 15.3177 11.5233 14.6189 11.5233 13.7569C11.5233 12.8949 10.8442 12.1961 10.0064 12.1961ZM13.5459 13.7569C13.5459 12.8949 14.2251 12.1961 15.0629 12.1961C15.9007 12.1961 16.5798 12.8949 16.5798 13.7569C16.5798 14.6189 15.9007 15.3177 15.0629 15.3177C14.2251 15.3177 13.5459 14.6189 13.5459 13.7569ZM4.94986 16.8785C4.11207 16.8785 3.4329 17.5772 3.4329 18.4392C3.4329 19.3012 4.11207 20 4.94986 20C5.78765 20 6.46681 19.3012 6.46681 18.4392C6.46681 17.5772 5.78765 16.8785 4.94986 16.8785ZM8.48942 18.4392C8.48942 17.5772 9.16858 16.8785 10.0064 16.8785C10.8442 16.8785 11.5233 17.5772 11.5233 18.4392C11.5233 19.3012 10.8442 20 10.0064 20C9.16858 20 8.48942 19.3012 8.48942 18.4392ZM15.0629 16.8785C14.2251 16.8785 13.5459 17.5772 13.5459 18.4392C13.5459 19.3012 14.2251 20 15.0629 20C15.9007 20 16.5798 19.3012 16.5798 18.4392C16.5798 17.5772 15.9007 16.8785 15.0629 16.8785Z" fill="black"/>
<path fill-rule="evenodd" clip-rule="evenodd" d="M18.0916 7.9177L15.0289 7.09136C15.0454 6.80321 15.0767 6.50343 15.1103 6.18079C15.1392 5.9035 15.1698 5.60933 15.1944 5.29115C15.2553 4.50255 14.7661 3.80058 14.0546 3.57345C10.2922 2.37239 7.28979 3.07073 6.0406 3.48664C5.28804 3.7372 4.90286 4.48399 4.96395 5.20205L5.12851 7.13642L5.1273 7.13919L5.12367 7.1427C5.12367 7.1427 5.1214 7.14405 5.1186 7.14463C4.33622 7.30805 3.25502 7.54742 2.28993 7.79805C1.75832 6.97949 1.64421 6.31395 1.70316 5.78291C1.76506 5.22528 2.0303 4.70736 2.422 4.23487C3.20406 3.2915 4.33951 2.70853 4.59678 2.58521C4.91788 2.48998 6.69529 1.9864 8.91847 1.80425C11.2109 1.61642 13.8335 1.78346 15.8364 2.94453C17.3001 3.79308 17.9331 4.77331 18.1764 5.63587C18.4117 6.46971 18.309 7.28871 18.0916 7.9177ZM19.6214 8.67959C19.2998 9.52101 18.4323 9.8041 17.7372 9.61654L14.5331 8.75208C13.8854 8.57731 13.3007 7.97243 13.3349 7.1386C13.3496 6.78125 13.397 6.31369 13.4411 5.87861C13.4654 5.63978 13.4886 5.41074 13.5049 5.21508C10.2881 4.20482 7.73153 4.768 6.65105 5.11443L6.81108 6.99551C6.88663 7.88363 6.30027 8.67391 5.46441 8.8485C4.69117 9.01 3.63256 9.24465 2.7004 9.48709C2.0787 9.64879 1.34308 9.44522 0.925993 8.81651C0.176906 7.68733 -0.0880987 6.59417 0.0250464 5.57491C0.136298 4.5727 0.601684 3.74408 1.13429 3.10162C2.18187 1.83798 3.63345 1.12272 3.90203 0.995965C3.97003 0.963871 4.03013 0.941254 4.09828 0.920845C4.42223 0.823837 6.34765 0.270019 8.77401 0.0712208C11.1751 -0.12551 14.2107 0.0122002 16.6582 1.43103C18.456 2.47323 19.4143 3.80008 19.7982 5.16066C20.1753 6.4974 19.9703 7.76698 19.6214 8.67959Z" fill="black"/>
</svg>
