<svg width="23" height="20" viewBox="0 0 23 20" fill="none" xmlns="http://www.w3.org/2000/svg">
<path d="M23 8.14354C22.8796 7.47557 22.2173 7.03025 21.3141 7.03025C21.0131 7.03025 20.7723 7.03025 20.4712 7.03025C19.9293 6.97459 19.8089 7.14159 19.8089 7.53124C19.8089 9.47948 19.8089 11.3721 19.8089 13.3203C19.8089 14.3223 18.7251 15.3799 17.4607 15.6025C13.4869 16.4375 9.51308 17.2168 5.53926 18.0518C5.11779 18.1631 4.63612 18.1631 4.15445 18.1631C3.97382 18.1631 3.67278 18.0518 3.61257 17.8848C3.55236 17.7734 3.73298 17.5508 3.8534 17.4395C4.03403 17.3281 4.27487 17.2168 4.51571 17.1055C5.23822 16.8828 6.02093 16.6602 6.74345 16.4375C9.69371 15.5469 12.644 14.6562 15.5942 13.71C16.9189 13.3203 17.6414 12.4853 17.6414 11.4277C17.7016 8.08788 17.6414 4.69236 17.6414 1.35251C17.6414 0.795871 17.3403 0.35056 16.678 0.127903C15.8953 -0.150417 15.1728 0.0722358 14.5105 0.350556C10.2958 2.18747 6.14135 4.02439 1.92669 5.86131C0.722502 6.41795 0 7.19725 0 8.31053C0 11.4834 0 14.6562 0 17.8291C0 17.9961 -1.46996e-05 18.1631 0.0601947 18.2744C0.481661 19.332 1.56545 20 3.01047 20C5.96074 20 8.91099 20 11.8612 20C14.8115 20 17.7016 20 20.6518 20C21.3141 20 21.856 19.8887 22.3377 19.499C22.9398 19.0537 22.9398 18.4414 22.9398 17.8848C22.9398 15.1462 23 8.14354 23 8.14354ZM10.7173 7.14159C11.0183 6.41795 11.6806 5.97264 12.644 5.86131C13.3063 5.80565 13.8482 6.13963 13.9686 6.69627C14.089 7.53124 13.0052 8.53319 11.8612 8.53319C10.9581 8.53319 10.4162 7.92089 10.7173 7.14159Z" fill="white"/>
</svg>
