<svg width="10" height="22" viewBox="0 0 10 22" fill="none" xmlns="http://www.w3.org/2000/svg">
<path fill-rule="evenodd" clip-rule="evenodd" d="M6.14671 2.61018C6.0938 2.58965 6.03737 2.58041 5.98104 2.58292C5.92472 2.58543 5.86972 2.59963 5.81951 2.62451C5.77097 2.64855 5.72786 2.68209 5.69267 2.7231C4.42288 4.29782 3.54167 6.14994 3.12034 8.13001L3.11852 8.13859C2.71431 9.95961 2.7161 11.8483 3.12401 13.6705L3.12602 13.6795C3.54852 15.6521 4.42677 17.4995 5.69059 19.0737C5.72641 19.1153 5.7702 19.1492 5.81934 19.1736C5.8704 19.1989 5.92603 19.2131 5.98262 19.2156C6.0392 19.2181 6.09549 19.2088 6.14789 19.1883C6.2003 19.1678 6.24775 19.1367 6.28726 19.0968L6.29013 19.0939L7.78041 17.6037C7.78627 17.5978 7.7922 17.592 7.7982 17.5863C7.86976 17.5182 7.91397 17.426 7.92207 17.3268C7.93009 17.2286 7.90211 17.1302 7.84286 17.0503C7.38363 16.4511 6.99336 15.8022 6.67946 15.1157L6.67846 15.1135C6.6461 15.0423 6.59396 14.9817 6.52825 14.9391C6.46309 14.8968 6.38751 14.874 6.31045 14.8731L5.05109 14.8719C4.60161 14.8714 4.20766 14.5712 4.08811 14.1379C3.50132 12.0113 3.49902 9.76654 4.08174 7.64054C4.20092 7.20573 4.59631 6.90443 5.04716 6.90488L6.30653 6.90613C6.38353 6.90541 6.45841 6.88283 6.52256 6.84127C6.58724 6.79936 6.63853 6.73977 6.67037 6.66947L6.67136 6.66727C6.98402 5.9812 7.37316 5.33272 7.83141 4.73415C7.88889 4.65645 7.91675 4.56025 7.90932 4.46286C7.90181 4.36435 7.85868 4.27144 7.7876 4.20176L7.78059 4.19488L6.28806 2.70228C6.288 2.70221 6.28812 2.70234 6.28806 2.70228C6.24782 2.66216 6.19954 2.63069 6.14671 2.61018ZM5.89198 0.584906C6.22574 0.57003 6.55891 0.624823 6.8703 0.745671C7.18169 0.866517 7.46456 1.05079 7.70094 1.28673L9.1918 2.77759C9.60625 3.18585 9.85928 3.73043 9.90353 4.3108C9.94793 4.89306 9.77914 5.4717 9.42807 5.93862L9.42248 5.94605C9.05456 6.42602 8.74215 6.94617 8.49129 7.49665L7.58133 7.08196L8.49229 7.49445C8.30246 7.91368 7.99627 8.26955 7.61001 8.51979C7.22377 8.77003 6.77388 8.904 6.31379 8.90612L6.30819 8.90615L5.83772 8.90567C5.58101 10.215 5.58256 11.5626 5.84242 12.8727L6.32169 12.8731C6.78174 12.8762 7.23125 13.011 7.61706 13.2614C8.00245 13.5116 8.30838 13.8667 8.4987 14.2848C8.75073 14.8358 9.0642 15.3567 9.43315 15.8375L9.43863 15.8446C9.79362 16.3159 9.96348 16.9013 9.91543 17.4896C9.86775 18.0733 9.6088 18.6194 9.18703 19.0255L7.70722 20.5053C7.70666 20.5058 7.70611 20.5064 7.70556 20.5069C7.46984 20.7441 7.18721 20.9295 6.87575 21.0512C6.56357 21.1731 6.22937 21.2285 5.8946 21.2137C5.55984 21.199 5.23187 21.1145 4.93165 20.9658C4.63144 20.8171 4.36552 20.6074 4.15087 20.3502L4.13942 20.3362C2.67702 18.5181 1.66042 16.3832 1.1713 14.1028C0.700639 11.9972 0.698452 9.81454 1.16505 7.70947C1.65288 5.42018 2.67303 3.27877 4.1431 1.45861L4.15307 1.44647C4.3671 1.18982 4.6323 0.98067 4.93174 0.83234C5.23118 0.684011 5.55822 0.599784 5.89198 0.584906Z" fill="#121211"/>
</svg>
