<svg width="23" height="24" viewBox="0 0 23 24" fill="none" xmlns="http://www.w3.org/2000/svg">
<path d="M18.0733 15.0907C18.4638 15.2615 18.6312 15.831 18.6312 16.1157C18.6869 16.5713 18.5754 16.7991 18.408 16.7991C18.2407 16.7991 18.0175 16.6282 17.7944 16.2296C17.5713 15.831 17.4597 15.4324 17.5713 15.2046C17.7386 15.0907 17.906 15.0338 18.0733 15.0907Z" fill="white"/>
<path d="M15.7863 16.856C16.0095 16.856 16.2884 16.9698 16.5673 17.1976C17.0135 17.5963 17.1809 18.0518 16.9578 18.3935C16.8462 18.5643 16.5673 18.6782 16.3442 18.6782C16.0653 18.6782 15.7863 18.5643 15.619 18.3935C15.1727 17.9949 15.0612 17.4254 15.3401 17.0837C15.3959 16.9698 15.5632 16.856 15.7863 16.856Z" fill="white"/>
<path d="M10.487 21.3547C4.68569 21.3547 0 16.5712 0 10.7058C0 4.84039 4.68569 0 10.487 0C16.2884 0 20.974 4.78345 20.974 10.7058C20.974 12.6989 20.4162 14.5781 19.5237 16.1726C19.4679 16.2295 19.4121 16.2295 19.4121 16.1157C19.0217 13.4961 17.4598 12.0725 15.2285 11.6169C15.0054 11.56 15.0054 11.4461 15.2843 11.4461C16.0094 11.3892 16.9577 11.3892 17.5156 11.503C17.5713 11.2183 17.5713 10.9336 17.5713 10.7058C17.5713 6.83349 14.4475 3.64453 10.6544 3.64453C6.86119 3.64453 3.7374 6.83349 3.7374 10.7058C3.7374 14.5781 6.86119 17.7671 10.6544 17.7671H10.9891C10.8775 17.1407 10.8217 16.5143 10.8775 15.8309C10.8775 15.3754 10.9891 15.3184 11.1564 15.6601C12.1047 17.3685 13.4993 18.8491 16.1768 19.4755C18.3523 19.988 20.5278 20.5574 22.9264 23.5756C23.1495 23.8603 22.8149 24.145 22.5917 23.9172C20.1931 21.7533 18.0176 21.013 16.0094 21.013C13.4993 21.0699 11.9931 21.3547 10.487 21.3547Z" fill="white"/>
</svg>
