<svg width="20" height="19" viewBox="0 0 20 19" fill="none" xmlns="http://www.w3.org/2000/svg">
<path d="M0.504473 7.06067L9.50024 12.2582C9.65218 12.346 9.82455 12.3922 10 12.3922C10.1755 12.3922 10.3478 12.346 10.4998 12.2582L19.4955 7.06067C19.647 6.97281 19.7727 6.84669 19.8601 6.69496C19.9475 6.54322 19.9935 6.37118 19.9935 6.19608C19.9935 6.02097 19.9475 5.84893 19.8601 5.6972C19.7727 5.54546 19.647 5.41935 19.4955 5.33148L10.4998 0.133912C10.3478 0.0461848 10.1755 0 10 0C9.82455 0 9.65218 0.0461848 9.50024 0.133912L0.504473 5.33148C0.353005 5.41935 0.227278 5.54546 0.139879 5.6972C0.0524812 5.84893 0.00647916 6.02097 0.00647916 6.19608C0.00647916 6.37118 0.0524812 6.54322 0.139879 6.69496C0.227278 6.84669 0.353005 6.97281 0.504473 7.06067ZM10 2.15297L16.9967 6.1511L10 10.1992L3.0033 6.19108L10 2.15297ZM18.496 11.9393L10 16.847L1.504 11.9393C1.39052 11.8728 1.26502 11.8294 1.13471 11.8115C1.00441 11.7936 0.871844 11.8016 0.74463 11.835C0.617415 11.8684 0.498049 11.9266 0.393376 12.0063C0.288702 12.0859 0.200779 12.1855 0.134647 12.2992C0.0685591 12.4132 0.0256931 12.5393 0.00851787 12.67C-0.00865736 12.8007 0.000197429 12.9335 0.0345724 13.0608C0.0689473 13.1881 0.128163 13.3073 0.20881 13.4116C0.289456 13.5159 0.389939 13.6032 0.504473 13.6685L9.50024 18.8661C9.65218 18.9538 9.82455 19 10 19C10.1755 19 10.3478 18.9538 10.4998 18.8661L19.4955 13.6685C19.6101 13.6032 19.7105 13.5159 19.7912 13.4116C19.8718 13.3073 19.9311 13.1881 19.9654 13.0608C19.9998 12.9335 20.0087 12.8007 19.9915 12.67C19.9743 12.5393 19.9314 12.4132 19.8654 12.2992C19.7992 12.1855 19.7113 12.0859 19.6066 12.0063C19.502 11.9266 19.3826 11.8684 19.2554 11.835C19.1282 11.8016 18.9956 11.7936 18.8653 11.8115C18.735 11.8294 18.6095 11.8728 18.496 11.9393Z" fill="#121211"/>
</svg>
