<svg width="20" height="22" viewBox="0 0 20 22" fill="none" xmlns="http://www.w3.org/2000/svg">
<path d="M15.4799 0.522178C11.8499 -0.174059 8.08028 -0.174059 4.45026 0.522178C2.84468 0.870297 0.820244 2.81976 0.471204 4.35149C-0.157068 7.34531 -0.157068 10.4088 0.471204 13.4026C0.890052 14.9343 2.91448 16.8838 4.45026 17.2319C4.52007 17.2319 4.58987 17.3015 4.58987 17.3711V21.7574C4.58987 21.9663 4.86911 22.1055 5.00873 21.8967L7.10297 19.7383C7.10297 19.7383 8.77836 17.9977 9.05759 17.7193C9.05759 17.7193 9.1274 17.6496 9.19721 17.6496C11.2914 17.7193 13.4555 17.5104 15.5497 17.1623C17.1553 16.8141 19.1798 14.8647 19.5288 13.333C20.1571 10.3391 20.1571 7.27568 19.5288 4.28186C19.1099 2.81976 17.0855 0.870297 15.4799 0.522178ZM15.5497 13.6115C15.2007 14.3077 14.7819 14.8647 14.0838 15.2128C13.8743 15.2824 13.6649 15.352 13.4555 15.4217C13.1763 15.352 12.9668 15.2824 12.7574 15.2128C10.5236 14.3077 8.42932 13.0545 6.75393 11.2442C5.84642 10.1999 5.07853 9.01628 4.45026 7.76305C4.17103 7.13644 3.8918 6.57945 3.68237 5.95283C3.47295 5.39584 3.82199 4.83885 4.17103 4.42111C4.52007 4.00337 4.93892 3.72487 5.42757 3.516C5.77661 3.30713 6.12566 3.44638 6.40489 3.72487C6.96335 4.42111 7.52181 5.11735 7.94066 5.88321C8.21989 6.37057 8.15009 6.92757 7.66143 7.27568C7.52181 7.34531 7.452 7.41493 7.31239 7.55418C7.24258 7.6238 7.10296 7.69343 7.03316 7.83267C6.89354 8.04154 6.89354 8.25042 6.96335 8.45929C7.52181 10.0606 8.56893 11.3139 10.1745 12.0101C10.4537 12.1493 10.6632 12.219 11.0122 12.219C11.5009 12.1494 11.7103 11.5924 12.0593 11.3139C12.4084 11.0354 12.8272 11.0354 13.2461 11.2442C13.5951 11.4531 13.9441 11.7316 14.363 12.0101C14.712 12.2886 15.0611 12.4975 15.4101 12.776C15.6195 12.9152 15.6894 13.2633 15.5497 13.6115ZM12.6178 8.38967C12.4782 8.38967 12.548 8.38967 12.6178 8.38967C12.3386 8.38967 12.2688 8.25042 12.199 8.04155C12.199 7.9023 12.199 7.69343 12.1291 7.55418C12.0593 7.27569 11.9197 6.99719 11.6405 6.78832C11.5009 6.71869 11.3613 6.64907 11.2216 6.57945C11.0122 6.50982 10.8726 6.50982 10.6632 6.50982C10.4538 6.4402 10.3839 6.30095 10.3839 6.09208C10.3839 5.95283 10.5934 5.81359 10.733 5.81359C11.8499 5.88321 12.6876 6.50982 12.8272 7.83267C12.8272 7.9023 12.8272 8.04155 12.8272 8.11117C12.8272 8.25042 12.7574 8.38967 12.6178 8.38967ZM11.9197 5.32622C11.5707 5.18697 11.2216 5.04772 10.8028 4.9781C10.6632 4.9781 10.4538 4.90848 10.3141 4.90848C10.1047 4.90848 9.9651 4.76923 10.0349 4.56036C10.0349 4.35149 10.1745 4.21224 10.3839 4.28186C11.082 4.35149 11.7103 4.49073 12.3386 4.76923C13.5951 5.39584 14.2932 6.4402 14.5026 7.83267C14.5026 7.9023 14.5026 7.97192 14.5026 8.04155C14.5026 8.18079 14.5026 8.32004 14.5026 8.52891C14.5026 8.59854 14.5026 8.66816 14.5026 8.73779C14.4328 9.01628 13.9442 9.0859 13.8743 8.73779C13.8743 8.66816 13.8045 8.52891 13.8045 8.45929C13.8045 7.83267 13.6649 7.20606 13.3857 6.64907C12.9668 6.02246 12.4782 5.60471 11.9197 5.32622ZM15.6894 9.50365C15.4799 9.50365 15.3403 9.29478 15.3403 9.0859C15.3403 8.66816 15.2705 8.25042 15.2007 7.83267C14.9215 5.60471 13.1065 3.7945 10.9424 3.44638C10.5934 3.37675 10.2443 3.37675 9.9651 3.30713C9.75567 3.30713 9.47644 3.30713 9.40663 3.02863C9.33682 2.81976 9.54625 2.61089 9.75567 2.61089C9.82548 2.61089 9.89529 2.61089 9.89529 2.61089C12.7574 2.68052 10.0349 2.61089 9.89529 2.61089C12.8272 2.68052 15.2705 4.62998 15.7592 7.55418C15.829 8.04155 15.8988 8.52891 15.8988 9.0859C16.0384 9.29478 15.8988 9.50365 15.6894 9.50365Z" fill="white"/>
</svg>
