<svg width="42" height="12" viewBox="0 0 42 12" fill="none" xmlns="http://www.w3.org/2000/svg">
<path d="M21.7214 3.83634C21.6974 5.5079 23.4051 6.44077 24.6915 6.99535C26.0132 7.56444 26.4571 7.92933 26.4521 8.43816C26.442 9.21704 25.3978 9.56072 24.4203 9.57411C22.7152 9.59755 21.7239 9.16682 20.9357 8.84099L20.3215 11.384C21.1122 11.7065 22.5765 11.9877 24.0949 12C27.6591 12 29.991 10.4434 30.0036 8.02976C30.0175 4.96671 25.2149 4.7971 25.2477 3.42793C25.259 3.01283 25.7067 2.56983 26.6879 2.45713C27.1735 2.40022 28.5141 2.3567 30.0339 2.97601L30.6304 0.515529C29.8132 0.252185 28.7626 0 27.4547 0C24.1 0 21.7403 1.57783 21.7214 3.83634ZM36.3625 0.212014C35.7117 0.212014 35.1631 0.547889 34.9184 1.06342L29.827 11.8192H33.3886L34.0974 10.0863H38.4498L38.8609 11.8192H42L39.2607 0.212014H36.3625ZM36.8607 3.34759L37.8885 7.70616H35.0736L36.8607 3.34759ZM17.4031 0.212014L14.5957 11.8192H17.9895L20.7957 0.212014H17.4031ZM12.3823 0.212014L8.84974 8.11233L7.42081 1.39483C7.25308 0.644969 6.59096 0.212014 5.85568 0.212014H0.0807159L0 0.549005C1.18551 0.776641 2.53246 1.14376 3.34845 1.53655C3.84788 1.77646 3.99039 1.98624 4.15435 2.55644L6.86085 11.8192H10.4477L15.9464 0.212014H12.3823Z" fill="white"/>
</svg>
