<svg width="64" height="64" viewBox="0 0 64 64" fill="none" xmlns="http://www.w3.org/2000/svg">
<path d="M62 20H36.949C36.7045 15.67 34.8122 11.5978 31.6603 8.61881C28.5084 5.63985 24.3359 3.9801 19.999 3.9801C15.6621 3.9801 11.4896 5.63985 8.33774 8.61881C5.18584 11.5978 3.2935 15.67 3.049 20H2C1.73478 20 1.48043 20.1054 1.29289 20.2929C1.10536 20.4804 1 20.7348 1 21V29C1 29.2652 1.10536 29.5196 1.29289 29.7071C1.48043 29.8946 1.73478 30 2 30H3V62C3 62.2652 3.10536 62.5196 3.29289 62.7071C3.48043 62.8946 3.73478 63 4 63H10C10.2652 63 10.5196 62.8946 10.7071 62.7071C10.8946 62.5196 11 62.2652 11 62V60.715L32 53.556L53 60.715V62C53 62.2652 53.1054 62.5196 53.2929 62.7071C53.4804 62.8946 53.7348 63 54 63H60C60.2652 63 60.5196 62.8946 60.7071 62.7071C60.8946 62.5196 61 62.2652 61 62V30H62C62.2652 30 62.5196 29.8946 62.7071 29.7071C62.8946 29.5196 63 29.2652 63 29V21C63 20.7348 62.8946 20.4804 62.7071 20.2929C62.5196 20.1054 62.2652 20 62 20ZM20 6.00001C23.8017 6.0059 27.4594 7.45451 30.2342 10.0532C33.0091 12.6519 34.6941 16.2069 34.949 20H28C28 17.8783 27.1571 15.8434 25.6569 14.3432C24.1566 12.8429 22.1217 12 20 12C17.8783 12 15.8434 12.8429 14.3431 14.3432C12.8429 15.8434 12 17.8783 12 20H5.051C5.30586 16.2069 6.99092 12.6519 9.76575 10.0532C12.5406 7.45451 16.1983 6.0059 20 6.00001ZM18 20C18 19.4696 18.2107 18.9609 18.5858 18.5858C18.9609 18.2107 19.4696 18 20 18C20.5304 18 21.0391 18.2107 21.4142 18.5858C21.7893 18.9609 22 19.4696 22 20H18ZM20 16C18.9391 16 17.9217 16.4214 17.1716 17.1716C16.4214 17.9217 16 18.9391 16 20H14C14 18.4087 14.6321 16.8826 15.7574 15.7574C16.8826 14.6321 18.4087 14 20 14C21.5913 14 23.1174 14.6321 24.2426 15.7574C25.3679 16.8826 26 18.4087 26 20H24C24 18.9391 23.5786 17.9217 22.8284 17.1716C22.0783 16.4214 21.0609 16 20 16ZM5 61V30H9V61H5ZM38 36H53V38H11V30H35V33C35 33.7957 35.3161 34.5587 35.8787 35.1213C36.4413 35.6839 37.2043 36 38 36ZM53 44.285L37.866 49.444L35.1 48.5L53 42.4V44.285ZM53 46.4V54.6L40.965 50.5L53 46.4ZM11 46.4L23.035 50.5L11 54.6V46.4ZM11 40H53V40.285L32 47.444L11 40.285V40ZM54 34H38C37.7348 34 37.4804 33.8946 37.2929 33.7071C37.1054 33.5196 37 33.2652 37 33V27C37 26.7348 37.1054 26.4804 37.2929 26.2929C37.4804 26.1054 37.7348 26 38 26H54C54.2652 26 54.5196 26.1054 54.7071 26.2929C54.8946 26.4804 55 26.7348 55 27V33C55 33.2652 54.8946 33.5196 54.7071 33.7071C54.5196 33.8946 54.2652 34 54 34ZM11 58.6V56.715L26.134 51.556L28.9 52.5L11 58.6ZM11 44.282V42.4L53 56.715V58.6L11 44.282ZM59 61H55V35.816C55.5829 35.6099 56.0879 35.2288 56.4459 34.7247C56.8039 34.2206 56.9974 33.6183 57 33V30H59V61ZM61 28H57V27C57 26.2044 56.6839 25.4413 56.1213 24.8787C55.5587 24.3161 54.7957 24 54 24H38C37.2043 24 36.4413 24.3161 35.8787 24.8787C35.3161 25.4413 35 26.2044 35 27V28H3V22H61V28Z" fill="#32BF73"/>
<path d="M26 36C27.1046 36 28 35.1046 28 34C28 32.8954 27.1046 32 26 32C24.8954 32 24 32.8954 24 34C24 35.1046 24.8954 36 26 36Z" fill="#FFBB45"/>
<path d="M21 36C22.1046 36 23 35.1046 23 34C23 32.8954 22.1046 32 21 32C19.8954 32 19 32.8954 19 34C19 35.1046 19.8954 36 21 36Z" fill="#FFBB45"/>
<path d="M5 24H9V26H5V24Z" fill="#FFBB45"/>
<path d="M3 8H5C5.26522 8 5.51957 7.89464 5.70711 7.70711C5.89464 7.51957 6 7.26522 6 7V3.477L9.629 4.929L10.371 3.071L5.371 1.071C5.21925 1.01037 5.05495 0.987861 4.89248 1.00543C4.73001 1.023 4.57433 1.08012 4.43904 1.17179C4.30376 1.26346 4.19301 1.38688 4.11647 1.53126C4.03993 1.67565 3.99994 1.83659 4 2V6H2C1.73478 6 1.48043 6.10536 1.29289 6.29289C1.10536 6.48043 1 6.73478 1 7V12H3V8Z" fill="#FFBB45"/>
<path d="M34 3.477V7C34 7.26522 34.1054 7.51957 34.2929 7.70711C34.4805 7.89464 34.7348 8 35 8H37V12H39V7C39 6.73478 38.8947 6.48043 38.7071 6.29289C38.5196 6.10536 38.2652 6 38 6H36V2C36.0001 1.83659 35.9601 1.67565 35.8836 1.53126C35.807 1.38688 35.6963 1.26346 35.561 1.17179C35.4257 1.08012 35.27 1.023 35.1075 1.00543C34.9451 0.987861 34.7808 1.01037 34.629 1.071L29.629 3.071L30.371 4.929L34 3.477Z" fill="#FFBB45"/>
<path d="M39 28H41V32H39V28Z" fill="#FFBB45"/>
<path d="M43 28H45V32H43V28Z" fill="#FFBB45"/>
<path d="M47 28H49V32H47V28Z" fill="#FFBB45"/>
<path d="M51 28H53V32H51V28Z" fill="#FFBB45"/>
</svg>
