<svg width="64" height="64" viewBox="0 0 64 64" fill="none" xmlns="http://www.w3.org/2000/svg">
<path d="M28.1035 59.9727C26.5884 59.6158 25.1624 58.9525 23.9134 58.0236C22.6644 57.0946 21.6189 55.9197 20.8413 54.5713L20.4106 56.1641C20.3689 56.3167 20.2915 56.4573 20.1849 56.5743C20.0783 56.6913 19.9455 56.7814 19.7974 56.8371C19.6493 56.8929 19.49 56.9127 19.3328 56.895C19.1755 56.8773 19.0246 56.8226 18.8926 56.7354C15.3918 54.415 14.4966 51.5574 13.897 48.8926C13.887 48.8247 13.8625 48.7597 13.8252 48.7022L12.6123 50.4141C12.5176 50.5392 12.3948 50.6404 12.2538 50.7094C12.1129 50.7785 11.9577 50.8134 11.8007 50.8115C11.6438 50.8096 11.4895 50.7709 11.3502 50.6985C11.211 50.6261 11.0907 50.5219 10.999 50.3945C9.25692 47.9587 8.52594 44.9427 8.95947 41.9795C8.97687 41.8593 8.95294 41.7367 8.8916 41.6319L7.31836 42.835C7.18826 42.9341 7.03585 42.9999 6.87445 43.0265C6.71306 43.0531 6.54761 43.0398 6.39257 42.9876C6.23753 42.9355 6.09763 42.8462 5.9851 42.7275C5.87257 42.6088 5.79084 42.4643 5.74707 42.3067C4.94349 39.4225 5.28641 36.3393 6.70407 33.7022C6.74816 33.6203 6.77014 33.5283 6.76783 33.4353C6.76552 33.3423 6.739 33.2515 6.69089 33.1719L5.19528 33.4698C5.04234 33.5001 4.88443 33.4943 4.73414 33.4528C4.58385 33.4112 4.44534 33.3352 4.32965 33.2306C4.21397 33.1261 4.12432 32.996 4.06784 32.8507C4.01136 32.7053 3.98962 32.5488 4.00436 32.3936C4.28491 29.4136 5.70871 26.658 7.97702 24.7051C8.06932 24.625 8.13151 24.5158 8.15329 24.3955L6.17722 24.2685C6.01416 24.2581 5.85616 24.2078 5.71702 24.1222C5.57789 24.0365 5.46186 23.9181 5.37909 23.7772C5.29632 23.6363 5.24933 23.4773 5.24222 23.3141C5.23512 23.1508 5.26812 22.9883 5.33835 22.8408C6.6195 20.1366 8.89868 18.034 11.6972 16.9746C11.7915 16.9387 11.8736 16.8768 11.9341 16.796C11.9946 16.7153 12.031 16.6191 12.039 16.5185C12.0405 16.5029 12.041 16.4873 12.041 16.4727L10.3589 15.54C10.2217 15.4637 10.1044 15.3563 10.0164 15.2263C9.92835 15.0964 9.87215 14.9475 9.85228 14.7918C9.83241 14.6361 9.84944 14.4779 9.90199 14.33C9.95454 14.1821 10.0411 14.0486 10.1548 13.9404C12.3183 11.8737 15.2 10.7284 18.1919 10.746H18.1943C18.3148 10.7456 18.4315 10.7043 18.5254 10.6289L17.1152 9.23339C16.9994 9.11834 16.9134 8.97671 16.8648 8.82083C16.8162 8.66496 16.8065 8.49957 16.8365 8.33907C16.8664 8.17857 16.9351 8.02782 17.0367 7.89996C17.1382 7.7721 17.2695 7.671 17.419 7.60546C20.159 6.40495 23.2582 6.31601 26.0625 7.35741C26.1567 7.3915 26.2586 7.3984 26.3565 7.37734C26.4544 7.35627 26.5444 7.30808 26.6163 7.23827L25.9888 5.39062C25.936 5.24312 25.9185 5.08528 25.9378 4.92979C25.957 4.7743 26.0125 4.62551 26.0998 4.49537C26.187 4.36524 26.3036 4.25739 26.4401 4.18051C26.5766 4.10363 26.7293 4.05986 26.8858 4.05272C29.874 3.91672 32.7983 4.94566 35.043 6.92284C35.1339 7.00236 35.249 7.04882 35.3697 7.05468L35.2198 5.07519C35.2076 4.91222 35.2355 4.74874 35.3011 4.59906C35.3667 4.44939 35.468 4.31807 35.5961 4.2166C35.7242 4.11513 35.8753 4.0466 36.036 4.01702C36.1967 3.98743 36.3622 3.99768 36.5181 4.04687C39.3735 4.94218 41.77 6.91082 43.2027 9.53808C43.2509 9.62614 43.3231 9.69873 43.4109 9.74747C43.4987 9.7962 43.5985 9.81909 43.6988 9.81347C43.7139 9.81247 43.729 9.81054 43.7437 9.80858L44.4317 8.01073C44.488 7.86403 44.5782 7.73266 44.6947 7.62726C44.8113 7.52186 44.951 7.44538 45.1027 7.40402C45.2543 7.36265 45.4135 7.35757 45.5675 7.38917C45.7214 7.42078 45.8657 7.48818 45.9888 7.58593C48.3333 9.44682 49.8657 12.1437 50.2642 15.1103C50.2806 15.2306 50.3372 15.3418 50.4248 15.4258L51.6064 13.835C51.7042 13.7039 51.8326 13.5987 51.9804 13.5287C52.1282 13.4587 52.2909 13.4259 52.4543 13.4334C52.6176 13.4408 52.7767 13.4881 52.9176 13.5713C53.0584 13.6544 53.1767 13.7708 53.2622 13.9102C54.829 16.4615 55.3478 19.5201 54.71 22.4453C54.6885 22.5449 54.6958 22.6486 54.7311 22.7443C54.7664 22.8399 54.8281 22.9235 54.9092 22.9853C54.9466 23.0135 54.9875 23.0368 55.0308 23.0546L56.3608 21.877C56.4869 21.7659 56.6389 21.6883 56.8028 21.6514C56.9667 21.6144 57.1373 21.6193 57.2988 21.6656C57.4604 21.712 57.6076 21.7982 57.7271 21.9163C57.8466 22.0345 57.9344 22.1808 57.9824 22.3418C58.837 25.2116 58.5475 28.3008 57.1748 30.962C57.1099 31.0889 57.0979 31.2364 57.1416 31.3721L58.7158 30.9053C58.877 30.8578 59.0476 30.8517 59.2118 30.8874C59.376 30.9232 59.5286 30.9997 59.6555 31.1099C59.7823 31.2201 59.8794 31.3605 59.9377 31.5181C59.9961 31.6757 60.0138 31.8455 59.9893 32.0118C59.5544 34.9734 57.9885 37.6512 55.6206 39.4825C55.5346 39.5499 55.4711 39.6418 55.4385 39.7461L57.5054 39.7451C57.668 39.7455 57.8282 39.7856 57.9719 39.8618C58.1156 39.938 58.2385 40.0482 58.3301 40.1827C58.4216 40.3171 58.479 40.4719 58.4972 40.6336C58.5154 40.7952 58.4939 40.9589 58.4346 41.1104C57.0265 43.694 54.8587 45.7827 52.2246 47.0938C52.1137 47.1451 52.0238 47.233 51.9702 47.3428L53.8359 48.0108C53.9896 48.0659 54.1275 48.1579 54.2375 48.2786C54.3475 48.3993 54.4263 48.5451 54.467 48.7032C54.5077 48.8614 54.5091 49.0271 54.471 49.1859C54.4329 49.3447 54.3565 49.4918 54.2485 49.6143C52.9237 50.7813 51.3948 51.6938 49.7387 52.3057C48.6537 52.7349 47.4979 52.9575 46.331 52.9619C46.2308 52.9705 46.135 53.0072 46.0547 53.0678C45.9744 53.1285 45.913 53.2106 45.8774 53.3047C45.872 53.3194 45.8671 53.334 45.8627 53.3496L47.2241 54.711C47.3349 54.8221 47.4181 54.9577 47.4668 55.1069C47.5156 55.2561 47.5286 55.4147 47.5047 55.5699C47.4808 55.725 47.4208 55.8723 47.3295 56C47.2382 56.1277 47.1181 56.232 46.979 56.3047C45.3555 56.9299 43.6297 57.2469 41.8901 57.2393C40.6447 57.2524 39.4067 57.0468 38.2324 56.6319C38.1161 56.5973 37.9914 56.6046 37.8798 56.6524L38.8515 58.3828C38.9314 58.5253 38.9751 58.6851 38.979 58.8484C38.9828 59.0116 38.9466 59.1734 38.8736 59.3194C38.8005 59.4655 38.6928 59.5914 38.5598 59.6862C38.4268 59.781 38.2727 59.8418 38.1108 59.8633C34.953 60.2854 31.2551 59.3613 29.205 56.9854C29.1835 56.96 29.1591 56.9317 29.1337 56.9024L29.1308 56.9356C29.1517 57.5767 29.2166 58.2155 29.3252 58.8477C29.3499 59.0098 29.3344 59.1756 29.2801 59.3303C29.2258 59.4851 29.1343 59.6241 29.0136 59.7352C28.893 59.8463 28.7469 59.926 28.5882 59.9675C28.4295 60.0089 28.2631 60.0107 28.1035 59.9727ZM30.7197 55.6787C31.4558 56.4109 32.33 56.9895 33.2915 57.3811C34.253 57.7727 35.2826 57.9695 36.3208 57.96L35.9868 57.3653C35.1191 55.8178 36.9955 54.1905 38.7944 54.712C40.6779 55.3579 42.7086 55.4421 44.6391 54.9541L44.3364 54.6514C44.0847 54.3818 43.9186 54.0436 43.8593 53.6795C43.8 53.3155 43.8502 52.942 44.0034 52.6065C44.1725 52.1571 44.4653 51.7648 44.848 51.4748C45.2307 51.1848 45.6876 51.0091 46.166 50.9678C47.5815 50.872 48.5102 50.9431 51.4062 49.2657L51.0082 49.1231C49.3223 48.5207 49.6981 46.0574 51.3871 45.2774C53.0636 44.4341 54.53 43.2262 55.6786 41.7422C55.5669 41.7421 54.9754 41.746 54.8749 41.7325C53.1288 41.53 52.9259 39.039 54.3964 37.9015C55.9114 36.7315 57.039 35.1325 57.6323 33.3126C55.5957 33.9155 54.6004 31.5936 55.3969 30.046C56.2764 28.345 56.624 26.4188 56.3945 24.5177L56.3276 24.5772C56.0709 24.8054 55.7578 24.9605 55.4209 25.0267C55.0839 25.0928 54.7354 25.0674 54.4116 24.9532L54.4101 24.9562C53.8227 24.754 53.3299 24.3435 53.025 23.8022C52.7201 23.261 52.6243 22.6268 52.7558 22.0196C53.1731 20.1135 52.9967 18.1253 52.2504 16.3224L51.8466 16.8663C50.7832 18.3008 48.5332 17.2346 48.2822 15.378C48.0181 13.4001 47.1405 11.5547 45.773 10.1016L45.5542 10.6738C44.9691 12.2008 42.4034 12.2458 41.4473 10.4971C40.5159 8.78465 39.0806 7.39987 37.336 6.53026L37.3873 7.20897C37.5239 9.00172 35.1121 9.65132 33.7217 8.42382C32.2248 7.10471 30.3516 6.2887 28.3663 6.09082L28.5376 6.56738C29.1691 8.32096 27.1548 9.89217 25.3672 9.23238C23.5407 8.5534 21.5497 8.45181 19.6636 8.94138L20.1495 9.42185C21.392 10.6462 20.1075 12.709 18.1812 12.7461C16.1867 12.7315 14.2383 13.3463 12.6133 14.5029L13.1514 14.8008C14.5796 15.5942 14.2693 18.139 12.4058 18.8457C10.5806 19.534 9.01097 20.7663 7.90918 22.376L8.5874 22.419C10.3781 22.5326 10.692 25.0052 9.28223 26.2207C7.76266 27.5264 6.693 29.2775 6.2251 31.2256L6.36768 31.1973C8.17187 30.8347 9.34062 33.0217 8.46582 34.6494C7.53973 36.3673 7.16228 38.3277 7.38428 40.2666L7.92188 39.8555C9.34009 38.7688 11.2087 40.4179 10.939 42.2686C10.6485 44.2438 10.9842 46.2605 11.899 48.0352L12.2666 47.5459C12.5018 47.2266 12.8269 46.9847 13.2003 46.851C13.5737 46.7173 13.9784 46.698 14.3628 46.7955C14.7472 46.893 15.0939 47.1028 15.3585 47.3983C15.623 47.6937 15.7935 48.0613 15.8482 48.4541C16.3891 50.8578 16.9622 52.4758 18.8721 54.1963L19.1773 53.0713C19.3915 52.0102 21.2732 50.6911 22.5366 53.4736C23.5502 55.3366 25.1841 56.7857 27.1548 57.5693C27.1298 57.312 27.1234 57.0532 27.1358 56.7949C27.2809 54.972 28.8282 53.4896 30.7197 55.6787Z" fill="#32BF73"/>
<path d="M32 42C30.0222 42 28.0888 41.4135 26.4443 40.3147C24.7998 39.2159 23.5181 37.6541 22.7612 35.8268C22.0043 33.9996 21.8063 31.9889 22.1922 30.0491C22.578 28.1093 23.5304 26.3275 24.9289 24.9289C26.3275 23.5304 28.1093 22.578 30.0491 22.1922C31.9889 21.8063 33.9996 22.0043 35.8268 22.7612C37.6541 23.5181 39.2159 24.7998 40.3147 26.4443C41.4135 28.0888 42 30.0222 42 32C41.997 34.6512 40.9424 37.193 39.0677 39.0677C37.193 40.9424 34.6512 41.997 32 42ZM32 24C30.4178 24 28.871 24.4692 27.5554 25.3482C26.2399 26.2273 25.2145 27.4767 24.609 28.9385C24.0035 30.4003 23.845 32.0089 24.1537 33.5607C24.4624 35.1126 25.2243 36.538 26.3432 37.6568C27.462 38.7757 28.8874 39.5376 30.4393 39.8463C31.9911 40.155 33.5997 39.9965 35.0615 39.391C36.5233 38.7855 37.7727 37.7601 38.6518 36.4446C39.5308 35.129 40 33.5822 40 32C39.9976 29.879 39.1539 27.8456 37.6542 26.3458C36.1544 24.8461 34.121 24.0024 32 24Z" fill="#32BF73"/>
<path d="M22.9619 13.2657C23.636 12.9454 24.3277 12.6637 25.0337 12.4219C25.2837 12.3384 25.5566 12.357 25.793 12.4738C26.0294 12.5905 26.21 12.7959 26.2957 13.0453C26.3813 13.2946 26.365 13.5676 26.2503 13.805C26.1355 14.0423 25.9317 14.2248 25.6831 14.3125C25.0485 14.5308 24.4266 14.7845 23.8203 15.0723C23.581 15.1841 23.3072 15.1968 23.0586 15.1074C22.81 15.0181 22.6069 14.834 22.4935 14.5955C22.3801 14.3569 22.3658 14.0831 22.4535 13.834C22.5413 13.5848 22.724 13.3805 22.9619 13.2657Z" fill="#FFAC1B"/>
<path d="M13.7534 22.1739C15.2103 19.363 17.3088 16.9348 19.8789 15.086C20.0945 14.9341 20.3614 14.8735 20.6214 14.9174C20.8815 14.9613 21.1137 15.1062 21.2674 15.3205C21.4212 15.5348 21.484 15.8011 21.4424 16.0615C21.4007 16.3219 21.2578 16.5554 21.0449 16.711C18.731 18.3754 16.8416 20.5613 15.5298 23.0918C15.4072 23.3259 15.197 23.5019 14.945 23.5815C14.693 23.661 14.4198 23.6375 14.1851 23.5162C13.9503 23.3949 13.7732 23.1856 13.6923 22.9341C13.6114 22.6826 13.6334 22.4092 13.7534 22.1739Z" fill="#FFAC1B"/>
<path d="M32 37C31.0111 37 30.0444 36.7068 29.2222 36.1574C28.3999 35.608 27.759 34.8271 27.3806 33.9134C27.0022 32.9998 26.9031 31.9945 27.0961 31.0246C27.289 30.0546 27.7652 29.1637 28.4645 28.4645C29.1637 27.7652 30.0546 27.289 31.0246 27.0961C31.9945 26.9031 32.9998 27.0022 33.9134 27.3806C34.8271 27.759 35.608 28.3999 36.1574 29.2222C36.7068 30.0444 37 31.0111 37 32C36.9985 33.3256 36.4712 34.5965 35.5338 35.5338C34.5965 36.4712 33.3256 36.9985 32 37ZM32 29C31.4067 29 30.8266 29.1759 30.3333 29.5056C29.8399 29.8352 29.4554 30.3038 29.2284 30.852C29.0013 31.4001 28.9419 32.0033 29.0576 32.5853C29.1734 33.1672 29.4591 33.7018 29.8787 34.1213C30.2982 34.5409 30.8328 34.8266 31.4147 34.9424C31.9967 35.0581 32.5999 34.9987 33.1481 34.7716C33.6962 34.5446 34.1648 34.1601 34.4944 33.6667C34.8241 33.1734 35 32.5934 35 32C34.9991 31.2046 34.6828 30.4421 34.1204 29.8796C33.5579 29.3172 32.7954 29.0009 32 29Z" fill="#FFAC1B"/>
</svg>
