<svg width="64" height="64" viewBox="0 0 64 64" fill="none" xmlns="http://www.w3.org/2000/svg">
<path d="M30 18H29C28.7348 18 28.4804 17.8946 28.2929 17.7071C28.1054 17.5196 28 17.2652 28 17C28 16.7348 28.1054 16.4804 28.2929 16.2929C28.4804 16.1054 28.7348 16 29 16H30C30.2652 16 30.5196 16.1054 30.7071 16.2929C30.8946 16.4804 31 16.7348 31 17C31 17.2652 30.8946 17.5196 30.7071 17.7071C30.5196 17.8946 30.2652 18 30 18Z" fill="#FFBB45"/>
<path d="M57 18H56C55.7348 18 55.4804 17.8946 55.2929 17.7071C55.1054 17.5196 55 17.2652 55 17C55 16.7348 55.1054 16.4804 55.2929 16.2929C55.4804 16.1054 55.7348 16 56 16H57C57.2652 16 57.5196 16.1054 57.7071 16.2929C57.8946 16.4804 58 16.7348 58 17C58 17.2652 57.8946 17.5196 57.7071 17.7071C57.5196 17.8946 57.2652 18 57 18Z" fill="#FFBB45"/>
<path d="M59 58C59.7949 57.9976 60.5566 57.6808 61.1187 57.1187C61.6808 56.5566 61.9976 55.7949 62 55V13C62 12.7348 61.8946 12.4804 61.7071 12.2929C61.5196 12.1054 61.2652 12 61 12H25C24.7348 12 24.4804 12.1054 24.2929 12.2929C24.1054 12.4804 24 12.7348 24 13V30H12.3C11.7203 30.0009 11.1532 30.1694 10.667 30.4852C10.1809 30.801 9.79644 31.2507 9.56 31.78L6.33 39.04C5.13132 39.2053 4.03281 39.7984 3.23705 40.7099C2.44129 41.6215 2.00193 42.79 2 44V55C2.00237 55.7949 2.31921 56.5566 2.8813 57.1187C3.4434 57.6808 4.20508 57.9976 5 58H7.68C8.03421 58.7462 8.51843 59.4235 9.11 60H3C2.73478 60 2.48043 60.1054 2.29289 60.2929C2.10536 60.4804 2 60.7348 2 61C2 61.2652 2.10536 61.5196 2.29289 61.7071C2.48043 61.8946 2.73478 62 3 62H61C61.2652 62 61.5196 61.8946 61.7071 61.7071C61.8946 61.5196 62 61.2652 62 61C62 60.7348 61.8946 60.4804 61.7071 60.2929C61.5196 60.1054 61.2652 60 61 60H49.89C50.4816 59.4235 50.9658 58.7462 51.32 58H59ZM60 55C60 55.2652 59.8946 55.5196 59.7071 55.7071C59.5196 55.8946 59.2652 56 59 56H51.92C52.0267 55.3376 52.0267 54.6624 51.92 54H60V55ZM26 14H60V44H26V14ZM38.08 54C37.9733 54.6624 37.9733 55.3376 38.08 56H20.92C21.0267 55.3376 21.0267 54.6624 20.92 54H38.08ZM11.39 32.59C11.4689 32.4146 11.5967 32.2656 11.7581 32.1609C11.9195 32.0563 12.1076 32.0004 12.3 32H20V39H8.54L11.39 32.59ZM4 46H6V48H4V46ZM7.08 56H5C4.73478 56 4.48043 55.8946 4.29289 55.7071C4.10536 55.5196 4 55.2652 4 55V54H7.08C6.97333 54.6624 6.97333 55.3376 7.08 56ZM7.68 52H4V50H6C6.52995 49.9984 7.03773 49.7872 7.41247 49.4125C7.7872 49.0377 7.99842 48.5299 8 48V46C7.99842 45.4701 7.7872 44.9623 7.41247 44.5875C7.03773 44.2128 6.52995 44.0016 6 44H4C4.00237 43.2051 4.31921 42.4434 4.8813 41.8813C5.4434 41.3192 6.20508 41.0024 7 41H21C21.2652 41 21.5196 40.8946 21.7071 40.7071C21.8946 40.5196 22 40.2652 22 40V32H24V52H20.32C19.7533 50.8034 18.8585 49.7923 17.7397 49.0842C16.6209 48.3762 15.324 48.0003 14 48.0003C12.676 48.0003 11.3791 48.3762 10.2603 49.0842C9.14154 49.7923 8.24674 50.8034 7.68 52ZM14 60C13.0111 60 12.0444 59.7068 11.2221 59.1573C10.3999 58.6079 9.75904 57.827 9.3806 56.9134C9.00216 55.9998 8.90315 54.9945 9.09607 54.0245C9.289 53.0546 9.7652 52.1637 10.4645 51.4645C11.1637 50.7652 12.0546 50.289 13.0245 50.0961C13.9945 49.9031 14.9998 50.0022 15.9134 50.3806C16.827 50.759 17.6079 51.3999 18.1573 52.2221C18.7068 53.0444 19 54.0111 19 55C19 56.3261 18.4732 57.5979 17.5355 58.5355C16.5979 59.4732 15.3261 60 14 60ZM18.89 60C19.4816 59.4235 19.9658 58.7462 20.32 58H38.68C39.0342 58.7462 39.5184 59.4235 40.11 60H18.89ZM45 60C44.0111 60 43.0444 59.7068 42.2221 59.1573C41.3999 58.6079 40.759 57.827 40.3806 56.9134C40.0022 55.9998 39.9031 54.9945 40.0961 54.0245C40.289 53.0546 40.7652 52.1637 41.4645 51.4645C42.1637 50.7652 43.0546 50.289 44.0245 50.0961C44.9945 49.9031 45.9998 50.0022 46.9134 50.3806C47.827 50.759 48.6079 51.3999 49.1573 52.2221C49.7068 53.0444 50 54.0111 50 55C50 56.3261 49.4732 57.5979 48.5355 58.5355C47.5979 59.4732 46.3261 60 45 60ZM45 48C43.6764 48.0021 42.3804 48.3788 41.262 49.0867C40.1435 49.7946 39.2483 50.8046 38.68 52H26V46H60V52H51.32C50.7517 50.8046 49.8565 49.7946 48.738 49.0867C47.6196 48.3788 46.3236 48.0021 45 48Z" fill="#32BF73"/>
<path d="M19 45H21C21.2652 45 21.5196 44.8946 21.7071 44.7071C21.8946 44.5196 22 44.2652 22 44C22 43.7348 21.8946 43.4804 21.7071 43.2929C21.5196 43.1054 21.2652 43 21 43H19C18.7348 43 18.4804 43.1054 18.2929 43.2929C18.1054 43.4804 18 43.7348 18 44C18 44.2652 18.1054 44.5196 18.2929 44.7071C18.4804 44.8946 18.7348 45 19 45Z" fill="#FFBB45"/>
<path d="M14 52C13.4067 52 12.8266 52.1759 12.3333 52.5056C11.8399 52.8352 11.4554 53.3038 11.2284 53.852C11.0013 54.4001 10.9419 55.0033 11.0576 55.5853C11.1734 56.1672 11.4591 56.7018 11.8787 57.1213C12.2982 57.5409 12.8328 57.8266 13.4147 57.9424C13.9967 58.0581 14.5999 57.9987 15.148 57.7716C15.6962 57.5446 16.1648 57.1601 16.4944 56.6667C16.8241 56.1734 17 55.5933 17 55C17 54.2044 16.6839 53.4413 16.1213 52.8787C15.5587 52.3161 14.7956 52 14 52ZM14 56C13.8022 56 13.6089 55.9414 13.4444 55.8315C13.28 55.7216 13.1518 55.5654 13.0761 55.3827C13.0004 55.2 12.9806 54.9989 13.0192 54.8049C13.0578 54.6109 13.153 54.4327 13.2929 54.2929C13.4327 54.153 13.6109 54.0578 13.8049 54.0192C13.9989 53.9806 14.2 54.0004 14.3827 54.0761C14.5654 54.1518 14.7216 54.28 14.8315 54.4444C14.9414 54.6089 15 54.8022 15 55C15 55.2652 14.8946 55.5196 14.7071 55.7071C14.5196 55.8946 14.2652 56 14 56Z" fill="#FFBB45"/>
<path d="M45 52C44.4067 52 43.8266 52.1759 43.3333 52.5056C42.8399 52.8352 42.4554 53.3038 42.2284 53.852C42.0013 54.4001 41.9419 55.0033 42.0576 55.5853C42.1734 56.1672 42.4591 56.7018 42.8787 57.1213C43.2982 57.5409 43.8328 57.8266 44.4147 57.9424C44.9967 58.0581 45.5999 57.9987 46.1481 57.7716C46.6962 57.5446 47.1648 57.1601 47.4944 56.6667C47.8241 56.1734 48 55.5933 48 55C48 54.2044 47.6839 53.4413 47.1213 52.8787C46.5587 52.3161 45.7957 52 45 52ZM45 56C44.8022 56 44.6089 55.9414 44.4444 55.8315C44.28 55.7216 44.1518 55.5654 44.0761 55.3827C44.0004 55.2 43.9806 54.9989 44.0192 54.8049C44.0578 54.6109 44.153 54.4327 44.2929 54.2929C44.4327 54.153 44.6109 54.0578 44.8049 54.0192C44.9989 53.9806 45.2 54.0004 45.3827 54.0761C45.5654 54.1518 45.7216 54.28 45.8315 54.4444C45.9414 54.6089 46 54.8022 46 55C46 55.2652 45.8946 55.5196 45.7071 55.7071C45.5196 55.8946 45.2652 56 45 56Z" fill="#FFBB45"/>
<path d="M56 42H57C57.2652 42 57.5196 41.8946 57.7071 41.7071C57.8946 41.5196 58 41.2652 58 41C58 40.7348 57.8946 40.4804 57.7071 40.2929C57.5196 40.1054 57.2652 40 57 40H56C55.7348 40 55.4804 40.1054 55.2929 40.2929C55.1054 40.4804 55 40.7348 55 41C55 41.2652 55.1054 41.5196 55.2929 41.7071C55.4804 41.8946 55.7348 42 56 42Z" fill="#FFBB45"/>
<path d="M29 42H30C30.2652 42 30.5196 41.8946 30.7071 41.7071C30.8946 41.5196 31 41.2652 31 41C31 40.7348 30.8946 40.4804 30.7071 40.2929C30.5196 40.1054 30.2652 40 30 40H29C28.7348 40 28.4804 40.1054 28.2929 40.2929C28.1054 40.4804 28 40.7348 28 41C28 41.2652 28.1054 41.5196 28.2929 41.7071C28.4804 41.8946 28.7348 42 29 42Z" fill="#FFBB45"/>
<path d="M44 34H51V35C51 35.2652 51.1054 35.5196 51.2929 35.7071C51.4805 35.8946 51.7348 36 52 36C52.2652 36 52.5196 35.8946 52.7071 35.7071C52.8947 35.5196 53 35.2652 53 35V34H54C54.2652 34 54.5196 33.8946 54.7071 33.7071C54.8947 33.5196 55 33.2652 55 33C55 32.7348 54.8947 32.4804 54.7071 32.2929C54.5196 32.1053 54.2652 32 54 32H53V21C53.0001 20.7853 52.9311 20.5764 52.8032 20.404C52.6753 20.2316 52.4954 20.1049 52.29 20.0427C52.0845 19.9805 51.8646 19.986 51.6625 20.0584C51.4605 20.1309 51.2871 20.2664 51.168 20.445L43.168 32.445C43.0676 32.5956 43.0098 32.7706 43.0011 32.9515C42.9923 33.1323 43.0327 33.3121 43.1182 33.4717C43.2036 33.6314 43.3307 33.7648 43.486 33.8579C43.6413 33.9509 43.819 34 44 34ZM51 24.3V32H45.869L51 24.3Z" fill="#FFBB45"/>
<path d="M37.8 27.4L33 31C32.3805 31.4671 31.8775 32.0713 31.5305 32.7652C31.1835 33.4592 31.0019 34.2241 31 35C31 35.2652 31.1054 35.5196 31.2929 35.7071C31.4804 35.8946 31.7348 36 32 36H40C40.2652 36 40.5196 35.8946 40.7071 35.7071C40.8947 35.5196 41 35.2652 41 35C41 34.7348 40.8947 34.4804 40.7071 34.2929C40.5196 34.1054 40.2652 34 40 34H33.173C33.3707 33.4427 33.7278 32.9559 34.2 32.6L39 29C39.6818 28.4886 40.2216 27.8115 40.5681 27.0328C40.9146 26.2541 41.0564 25.3998 40.9798 24.551C40.9033 23.7021 40.611 22.8869 40.1308 22.1828C39.6506 21.4787 38.9984 20.909 38.2361 20.5279C37.4738 20.1467 36.6267 19.9667 35.7753 20.0051C34.9238 20.0434 34.0963 20.2987 33.3713 20.7467C32.6464 21.1948 32.0479 21.8208 31.6329 22.5652C31.2179 23.3096 31 24.1477 31 25C31 25.2652 31.1054 25.5196 31.2929 25.7071C31.4804 25.8946 31.7348 26 32 26C32.2652 26 32.5196 25.8946 32.7071 25.7071C32.8946 25.5196 33 25.2652 33 25C33 24.4886 33.1307 23.9857 33.3797 23.5391C33.6288 23.0925 33.9878 22.7169 34.4228 22.448C34.8578 22.1792 35.3543 22.026 35.8652 22.003C36.376 21.98 36.8843 22.088 37.3416 22.3167C37.799 22.5454 38.1904 22.8872 38.4785 23.3097C38.7666 23.7322 38.942 24.2213 38.9879 24.7306C39.0338 25.2399 38.9488 25.7525 38.7409 26.2197C38.533 26.6869 38.2091 27.0932 37.8 27.4Z" fill="#FFBB45"/>
</svg>
