<svg width="60" height="50" viewBox="0 0 60 50" fill="none" xmlns="http://www.w3.org/2000/svg">
<path d="M28 6H27C26.7348 6 26.4804 5.89464 26.2929 5.70711C26.1054 5.51957 26 5.26522 26 5C26 4.73478 26.1054 4.48043 26.2929 4.29289C26.4804 4.10536 26.7348 4 27 4H28C28.2652 4 28.5196 4.10536 28.7071 4.29289C28.8946 4.48043 29 4.73478 29 5C29 5.26522 28.8946 5.51957 28.7071 5.70711C28.5196 5.89464 28.2652 6 28 6Z" fill="#FFBB45"/>
<path d="M55 6H54C53.7348 6 53.4804 5.89464 53.2929 5.70711C53.1054 5.51957 53 5.26522 53 5C53 4.73478 53.1054 4.48043 53.2929 4.29289C53.4804 4.10536 53.7348 4 54 4H55C55.2652 4 55.5196 4.10536 55.7071 4.29289C55.8946 4.48043 56 4.73478 56 5C56 5.26522 55.8946 5.51957 55.7071 5.70711C55.5196 5.89464 55.2652 6 55 6Z" fill="#FFBB45"/>
<path d="M57 46C57.7949 45.9976 58.5566 45.6808 59.1187 45.1187C59.6808 44.5566 59.9976 43.7949 60 43V1C60 0.734784 59.8946 0.48043 59.7071 0.292893C59.5196 0.105357 59.2652 0 59 0H23C22.7348 0 22.4804 0.105357 22.2929 0.292893C22.1054 0.48043 22 0.734784 22 1V18H10.3C9.72028 18.0009 9.15318 18.1694 8.66704 18.4852C8.18089 18.801 7.79644 19.2507 7.56 19.78L4.33 27.04C3.13132 27.2053 2.03281 27.7984 1.23705 28.7099C0.441286 29.6215 0.00192987 30.79 0 32V43C0.00237409 43.7949 0.319207 44.5566 0.881302 45.1187C1.4434 45.6808 2.20508 45.9976 3 46H5.68C6.03421 46.7462 6.51843 47.4235 7.11 48H1C0.734784 48 0.48043 48.1054 0.292893 48.2929C0.105357 48.4804 0 48.7348 0 49C0 49.2652 0.105357 49.5196 0.292893 49.7071C0.48043 49.8946 0.734784 50 1 50H59C59.2652 50 59.5196 49.8946 59.7071 49.7071C59.8946 49.5196 60 49.2652 60 49C60 48.7348 59.8946 48.4804 59.7071 48.2929C59.5196 48.1054 59.2652 48 59 48H47.89C48.4816 47.4235 48.9658 46.7462 49.32 46H57ZM58 43C58 43.2652 57.8946 43.5196 57.7071 43.7071C57.5196 43.8946 57.2652 44 57 44H49.92C50.0267 43.3376 50.0267 42.6624 49.92 42H58V43ZM24 2H58V32H24V2ZM36.08 42C35.9733 42.6624 35.9733 43.3376 36.08 44H18.92C19.0267 43.3376 19.0267 42.6624 18.92 42H36.08ZM9.39 20.59C9.46887 20.4146 9.59667 20.2656 9.75807 20.1609C9.91948 20.0563 10.1076 20.0004 10.3 20H18V27H6.54L9.39 20.59ZM2 34H4V36H2V34ZM5.08 44H3C2.73478 44 2.48043 43.8946 2.29289 43.7071C2.10536 43.5196 2 43.2652 2 43V42H5.08C4.97333 42.6624 4.97333 43.3376 5.08 44ZM5.68 40H2V38H4C4.52995 37.9984 5.03773 37.7872 5.41247 37.4125C5.7872 37.0377 5.99842 36.5299 6 36V34C5.99842 33.4701 5.7872 32.9623 5.41247 32.5875C5.03773 32.2128 4.52995 32.0016 4 32H2C2.00237 31.2051 2.31921 30.4434 2.8813 29.8813C3.4434 29.3192 4.20508 29.0024 5 29H19C19.2652 29 19.5196 28.8946 19.7071 28.7071C19.8946 28.5196 20 28.2652 20 28V20H22V40H18.32C17.7533 38.8034 16.8585 37.7923 15.7397 37.0842C14.6209 36.3762 13.324 36.0003 12 36.0003C10.676 36.0003 9.37914 36.3762 8.26034 37.0842C7.14154 37.7923 6.24674 38.8034 5.68 40ZM12 48C11.0111 48 10.0444 47.7068 9.22215 47.1573C8.3999 46.6079 7.75904 45.827 7.3806 44.9134C7.00216 43.9998 6.90315 42.9945 7.09607 42.0245C7.289 41.0546 7.7652 40.1637 8.46447 39.4645C9.16373 38.7652 10.0546 38.289 11.0245 38.0961C11.9945 37.9031 12.9998 38.0022 13.9134 38.3806C14.827 38.759 15.6079 39.3999 16.1573 40.2221C16.7068 41.0444 17 42.0111 17 43C17 44.3261 16.4732 45.5979 15.5355 46.5355C14.5979 47.4732 13.3261 48 12 48ZM16.89 48C17.4816 47.4235 17.9658 46.7462 18.32 46H36.68C37.0342 46.7462 37.5184 47.4235 38.11 48H16.89ZM43 48C42.0111 48 41.0444 47.7068 40.2221 47.1573C39.3999 46.6079 38.759 45.827 38.3806 44.9134C38.0022 43.9998 37.9031 42.9945 38.0961 42.0245C38.289 41.0546 38.7652 40.1637 39.4645 39.4645C40.1637 38.7652 41.0546 38.289 42.0245 38.0961C42.9945 37.9031 43.9998 38.0022 44.9134 38.3806C45.827 38.759 46.6079 39.3999 47.1573 40.2221C47.7068 41.0444 48 42.0111 48 43C48 44.3261 47.4732 45.5979 46.5355 46.5355C45.5979 47.4732 44.3261 48 43 48ZM43 36C41.6764 36.0021 40.3804 36.3788 39.262 37.0867C38.1435 37.7946 37.2483 38.8046 36.68 40H24V34H58V40H49.32C48.7517 38.8046 47.8565 37.7946 46.738 37.0867C45.6196 36.3788 44.3236 36.0021 43 36Z" fill="#32BF73"/>
<path d="M17 33H19C19.2652 33 19.5196 32.8946 19.7071 32.7071C19.8946 32.5196 20 32.2652 20 32C20 31.7348 19.8946 31.4804 19.7071 31.2929C19.5196 31.1054 19.2652 31 19 31H17C16.7348 31 16.4804 31.1054 16.2929 31.2929C16.1054 31.4804 16 31.7348 16 32C16 32.2652 16.1054 32.5196 16.2929 32.7071C16.4804 32.8946 16.7348 33 17 33Z" fill="#FFBB45"/>
<path d="M12 40C11.4067 40 10.8266 40.1759 10.3333 40.5056C9.83994 40.8352 9.45543 41.3038 9.22836 41.852C9.0013 42.4001 8.94189 43.0033 9.05765 43.5853C9.1734 44.1672 9.45912 44.7018 9.87868 45.1213C10.2982 45.5409 10.8328 45.8266 11.4147 45.9424C11.9967 46.0581 12.5999 45.9987 13.148 45.7716C13.6962 45.5446 14.1648 45.1601 14.4944 44.6667C14.8241 44.1734 15 43.5933 15 43C15 42.2044 14.6839 41.4413 14.1213 40.8787C13.5587 40.3161 12.7956 40 12 40ZM12 44C11.8022 44 11.6089 43.9414 11.4444 43.8315C11.28 43.7216 11.1518 43.5654 11.0761 43.3827C11.0004 43.2 10.9806 42.9989 11.0192 42.8049C11.0578 42.6109 11.153 42.4327 11.2929 42.2929C11.4327 42.153 11.6109 42.0578 11.8049 42.0192C11.9989 41.9806 12.2 42.0004 12.3827 42.0761C12.5654 42.1518 12.7216 42.28 12.8315 42.4444C12.9414 42.6089 13 42.8022 13 43C13 43.2652 12.8946 43.5196 12.7071 43.7071C12.5196 43.8946 12.2652 44 12 44Z" fill="#FFBB45"/>
<path d="M43 40C42.4067 40 41.8266 40.1759 41.3333 40.5056C40.8399 40.8352 40.4554 41.3038 40.2284 41.852C40.0013 42.4001 39.9419 43.0033 40.0576 43.5853C40.1734 44.1672 40.4591 44.7018 40.8787 45.1213C41.2982 45.5409 41.8328 45.8266 42.4147 45.9424C42.9967 46.0581 43.5999 45.9987 44.1481 45.7716C44.6962 45.5446 45.1648 45.1601 45.4944 44.6667C45.8241 44.1734 46 43.5933 46 43C46 42.2044 45.6839 41.4413 45.1213 40.8787C44.5587 40.3161 43.7957 40 43 40ZM43 44C42.8022 44 42.6089 43.9414 42.4444 43.8315C42.28 43.7216 42.1518 43.5654 42.0761 43.3827C42.0004 43.2 41.9806 42.9989 42.0192 42.8049C42.0578 42.6109 42.153 42.4327 42.2929 42.2929C42.4327 42.153 42.6109 42.0578 42.8049 42.0192C42.9989 41.9806 43.2 42.0004 43.3827 42.0761C43.5654 42.1518 43.7216 42.28 43.8315 42.4444C43.9414 42.6089 44 42.8022 44 43C44 43.2652 43.8946 43.5196 43.7071 43.7071C43.5196 43.8946 43.2652 44 43 44Z" fill="#FFBB45"/>
<path d="M54 30H55C55.2652 30 55.5196 29.8946 55.7071 29.7071C55.8946 29.5196 56 29.2652 56 29C56 28.7348 55.8946 28.4804 55.7071 28.2929C55.5196 28.1054 55.2652 28 55 28H54C53.7348 28 53.4804 28.1054 53.2929 28.2929C53.1054 28.4804 53 28.7348 53 29C53 29.2652 53.1054 29.5196 53.2929 29.7071C53.4804 29.8946 53.7348 30 54 30Z" fill="#FFBB45"/>
<path d="M27 30H28C28.2652 30 28.5196 29.8946 28.7071 29.7071C28.8946 29.5196 29 29.2652 29 29C29 28.7348 28.8946 28.4804 28.7071 28.2929C28.5196 28.1054 28.2652 28 28 28H27C26.7348 28 26.4804 28.1054 26.2929 28.2929C26.1054 28.4804 26 28.7348 26 29C26 29.2652 26.1054 29.5196 26.2929 29.7071C26.4804 29.8946 26.7348 30 27 30Z" fill="#FFBB45"/>
<path d="M42.0002 22H49.0001V23C49.0001 23.2652 49.1055 23.5196 49.293 23.7071C49.4806 23.8946 49.7349 24 50.0001 24C50.2654 24 50.5197 23.8946 50.7073 23.7071C50.8948 23.5196 51.0001 23.2652 51.0001 23V22H52.0001C52.2654 22 52.5197 21.8946 52.7073 21.7071C52.8948 21.5196 53.0001 21.2652 53.0001 21C53.0001 20.7348 52.8948 20.4804 52.7073 20.2929C52.5197 20.1053 52.2654 20 52.0001 20H51.0001V8.99998C51.0002 8.78534 50.9312 8.57639 50.8033 8.404C50.6754 8.23161 50.4955 8.10494 50.2901 8.04271C50.0847 7.98048 49.8647 7.98599 49.6626 8.05844C49.4606 8.13088 49.2872 8.2664 49.1681 8.44498L41.1682 20.445C41.0677 20.5956 41.01 20.7706 41.0012 20.9515C40.9924 21.1323 41.0329 21.3121 41.1183 21.4717C41.2037 21.6314 41.3308 21.7648 41.4861 21.8579C41.6415 21.9509 41.8191 22 42.0002 22ZM49.0001 12.3V20H43.8691L49.0001 12.3Z" fill="#FFBB45"/>
<path d="M35.8 15.4L31 19C30.3805 19.4671 29.8775 20.0713 29.5305 20.7652C29.1835 21.4592 29.0019 22.2241 29 23C29 23.2652 29.1054 23.5196 29.2929 23.7071C29.4804 23.8946 29.7348 24 30 24H38C38.2652 24 38.5196 23.8946 38.7071 23.7071C38.8947 23.5196 39 23.2652 39 23C39 22.7348 38.8947 22.4804 38.7071 22.2929C38.5196 22.1054 38.2652 22 38 22H31.173C31.3707 21.4427 31.7278 20.9559 32.2 20.6L37 17C37.6818 16.4886 38.2216 15.8115 38.5681 15.0328C38.9146 14.2541 39.0564 13.3998 38.9798 12.551C38.9033 11.7021 38.611 10.8869 38.1308 10.1828C37.6506 9.4787 36.9984 8.90902 36.2361 8.52787C35.4738 8.14671 34.6267 7.96675 33.7753 8.00505C32.9238 8.04336 32.0963 8.29868 31.3713 8.74675C30.6464 9.19482 30.0479 9.82078 29.6329 10.5652C29.2179 11.3096 29 12.1477 29 13C29 13.2652 29.1054 13.5196 29.2929 13.7071C29.4804 13.8946 29.7348 14 30 14C30.2652 14 30.5196 13.8946 30.7071 13.7071C30.8946 13.5196 31 13.2652 31 13C31 12.4886 31.1307 11.9857 31.3797 11.5391C31.6288 11.0925 31.9878 10.7169 32.4228 10.448C32.8578 10.1792 33.3543 10.026 33.8652 10.003C34.376 9.98005 34.8843 10.088 35.3416 10.3167C35.799 10.5454 36.1904 10.8872 36.4785 11.3097C36.7666 11.7322 36.942 12.2213 36.9879 12.7306C37.0338 13.2399 36.9488 13.7525 36.7409 14.2197C36.533 14.6869 36.2091 15.0932 35.8 15.4Z" fill="#FFBB45"/>
</svg>
