<svg width="64" height="54" viewBox="0 0 64 54" fill="none" xmlns="http://www.w3.org/2000/svg">
<path d="M24.2402 17.2565C24.9545 17.3035 25.6585 17.0673 26.1998 16.599C26.7411 16.1307 27.0761 15.468 27.1323 14.7545C27.0761 14.0409 26.7411 13.3782 26.1998 12.9099C25.6585 12.4416 24.9545 12.2054 24.2402 12.2525C23.526 12.2054 22.8219 12.4416 22.2805 12.9099C21.7391 13.3782 21.404 14.0409 21.3477 14.7545C21.404 15.4681 21.7391 16.1308 22.2805 16.5991C22.8219 17.0674 23.526 17.3035 24.2402 17.2565ZM24.2402 14.2526C24.7847 14.2526 25.1323 14.5499 25.1323 14.7546C25.1323 14.9592 24.7847 15.2566 24.2402 15.2566C23.6953 15.2566 23.3477 14.9592 23.3477 14.7546C23.3477 14.5499 23.6953 14.2526 24.2402 14.2526Z" fill="#FFC807"/>
<path d="M63.4941 22.9243C55.6339 18.4583 30.8076 4.35256 23.3765 0.130342C23.2198 0.0410836 23.0418 -0.00405241 22.8615 -0.00026849C22.6812 0.00351543 22.5053 0.056078 22.3525 0.151833L0.47021 13.8282C0.32787 13.9197 0.210424 14.045 0.128371 14.193C0.0463175 14.3411 0.00221318 14.5071 0 14.6763L0 30.2061C1.58526e-05 30.3828 0.046831 30.5563 0.135684 30.7091C0.224538 30.8618 0.352259 30.9883 0.50586 31.0757L40.6235 53.8697C40.7803 53.9587 40.9582 54.0036 41.1385 53.9999C41.3187 53.9961 41.4945 53.9437 41.6475 53.8482L63.5298 40.1719C63.6736 40.082 63.7922 39.957 63.8745 39.8086C63.9567 39.6602 63.9999 39.4934 64 39.3238V23.794C63.9986 23.6176 63.9512 23.4446 63.8625 23.292C63.7738 23.1395 63.6468 23.0128 63.4941 22.9243ZM45.4318 14.9623L61.0477 23.8349L41.0933 36.3067L25.4849 27.4381L27.0699 26.4468L37.7964 32.5396C37.9744 32.6406 38.1791 32.6846 38.3829 32.6656C38.5867 32.6467 38.7798 32.5657 38.9361 32.4336C39.5385 31.9819 40.2779 31.7511 41.0303 31.7798C41.7466 31.762 42.4504 31.9698 43.042 32.374C43.2037 32.498 43.3994 32.5696 43.6029 32.5792C43.8064 32.5888 44.008 32.536 44.1807 32.4277L53.6709 26.4878C53.8013 26.4061 53.911 26.2954 53.9917 26.1644C54.0723 26.0333 54.1216 25.8855 54.1358 25.7323C54.1499 25.5791 54.1286 25.4247 54.0734 25.2811C54.0181 25.1375 53.9306 25.0085 53.8174 24.9043C53.6755 24.7853 53.5598 24.6382 53.4776 24.4722C53.3954 24.3062 53.3485 24.125 53.3399 23.9399C53.3552 23.5988 53.5052 23.2777 53.7569 23.0469C53.8658 22.938 53.9481 22.8055 53.9974 22.6596C54.0467 22.5137 54.0616 22.3584 54.041 22.2058C54.0204 22.0532 53.9648 21.9074 53.8786 21.7798C53.7924 21.6522 53.6779 21.5463 53.544 21.4702L43.8405 15.9576L45.4318 14.9623ZM51.689 25.3687L43.6509 30.3999C42.8397 29.986 41.9409 29.7733 41.0303 29.7798C40.0523 29.7644 39.0877 30.0091 38.2354 30.4888L28.9972 25.2414L38.5458 19.2692L41.9146 17.1641L51.6157 22.6753C51.435 23.0725 51.3409 23.5036 51.3398 23.94C51.341 24.4372 51.4607 24.927 51.689 25.3687ZM17.5923 38.4832L2 29.624V26.7478L17.5923 35.6035V38.4832ZM17.5923 33.3035L2 24.4478V21.5687L17.5923 30.433V33.3035ZM17.5923 28.133L2 19.2686V16.3949L17.5923 25.2542V28.133ZM2.95229 14.6352L22.9067 2.16408L38.5146 11.0321L36.9255 12.026L26.1738 5.92043C25.9998 5.82187 25.8003 5.77766 25.6009 5.7935C25.4015 5.80934 25.2115 5.8845 25.0552 6.0093C24.4453 6.39634 23.74 6.60655 23.0178 6.61655C22.2955 6.62655 21.5847 6.43594 20.9644 6.06594C20.8028 5.94641 20.609 5.87837 20.4083 5.8707C20.2075 5.86303 20.009 5.91608 19.8389 6.02294L10.3286 11.9829C10.1984 12.0647 10.0887 12.1754 10.0082 12.3064C9.92762 12.4374 9.87838 12.5852 9.86426 12.7383C9.85013 12.8915 9.87151 13.0458 9.92672 13.1893C9.98194 13.3329 10.0695 13.4618 10.1826 13.5659C10.3264 13.6745 10.444 13.814 10.5266 13.9742C10.6092 14.1343 10.6547 14.311 10.6597 14.4911C10.6647 14.6713 10.6291 14.8502 10.5556 15.0147C10.482 15.1792 10.3724 15.3251 10.2348 15.4414C10.1279 15.5509 10.0475 15.6834 9.99988 15.8288C9.95222 15.9742 9.93858 16.1286 9.96 16.2801C9.98141 16.4316 10.0373 16.5762 10.1234 16.7027C10.2095 16.8292 10.3235 16.9343 10.4565 17.0098L20.1548 22.5153L18.5679 23.5078L2.95229 14.6352ZM12.311 13.1011L20.375 8.0469C21.2126 8.44444 22.1306 8.64366 23.0577 8.62909C23.9847 8.61453 24.896 8.38657 25.7207 7.9629L34.9976 13.231L22.0757 21.3057L12.3804 15.8023C12.5631 15.4029 12.6585 14.9691 12.6602 14.5299C12.6591 14.0326 12.5394 13.5428 12.311 13.1011ZM22.5332 41.2906L19.5923 39.6192V26.3907C21.3778 27.4051 20.7292 27.0365 22.5332 28.0617V41.2906ZM20.5443 24.6307C25.4855 21.5401 35.557 15.2407 40.4907 12.1549L43.4555 13.8394C43.4416 13.8481 23.5229 26.3066 23.509 26.3153L20.5443 24.6307ZM62 38.7696L41.0933 51.836L24.5332 42.4269V39.55L40.6265 48.6895C40.7832 48.7784 40.961 48.8234 41.1411 48.8196C41.3213 48.8159 41.4971 48.7635 41.6499 48.668L62 35.9538V38.7696ZM62 33.5956L41.0957 46.6558L24.5332 37.25V34.3704L40.626 43.519C40.7828 43.6082 40.9608 43.6534 41.1411 43.6497C41.3214 43.646 41.4974 43.5936 41.6504 43.498L62 30.7751V33.5956ZM62 28.4158L41.0957 41.4859L24.5332 32.0703V29.198L40.6235 38.3404C40.7012 38.3841 40.7843 38.4173 40.8708 38.439C40.8893 38.4436 40.9083 38.4426 40.927 38.4462C40.9896 38.4605 41.0535 38.4687 41.1177 38.4707L41.1302 38.469C41.1769 38.4658 41.2234 38.4593 41.2692 38.4497C41.3123 38.4459 41.3551 38.4393 41.3974 38.4299C41.4854 38.4045 41.5696 38.3672 41.6475 38.3189L62 25.5982V28.4158Z" fill="#32BF73"/>
<path d="M39.7622 21.2144C39.048 21.1673 38.344 21.4035 37.8027 21.8718C37.2613 22.3401 36.9263 23.0028 36.8701 23.7164C36.9711 24.4114 37.319 25.0469 37.8501 25.5064C38.3813 25.9659 39.0601 26.2188 39.7625 26.2188C40.4648 26.2188 41.1436 25.9659 41.6748 25.5064C42.2059 25.0469 42.5538 24.4114 42.6548 23.7164C42.5985 23.0028 42.2633 22.3401 41.7219 21.8718C41.1806 21.4035 40.4765 21.1673 39.7622 21.2144ZM39.7622 24.2188C39.2178 24.2188 38.8701 23.9214 38.8701 23.7163C38.8701 23.5118 39.2178 23.2143 39.7622 23.2143C40.3071 23.2143 40.6548 23.5117 40.6548 23.7163C40.6548 23.9214 40.3071 24.2188 39.7622 24.2188Z" fill="#FFC807"/>
</svg>
