<svg width="58" height="60" viewBox="0 0 58 60" fill="none" xmlns="http://www.w3.org/2000/svg">
<path d="M57.5313 27.9676C57.3032 27.2054 56.7817 26.5649 56.0815 26.1872C55.3813 25.8095 54.5597 25.7253 53.7974 25.9534L26.9724 33.9792C26.8237 34.0238 26.6874 34.1023 26.5743 34.2086L23.3153 37.2711C23.1799 37.3983 23.0827 37.5606 23.0344 37.7399C22.9861 37.9192 22.9887 38.1085 23.0419 38.2864C23.0951 38.4643 23.1968 38.6239 23.3356 38.7473C23.4744 38.8707 23.6448 38.953 23.8278 38.985L28.2332 39.7545C28.3861 39.7811 28.5432 39.7719 28.6919 39.7275L50.4579 33.215L50.5522 35.2743L43.6359 37.3436L44.2092 39.2598L51.8734 36.9666C52.0871 36.9027 52.2733 36.7692 52.4024 36.5874C52.5315 36.4055 52.5961 36.1858 52.5859 35.963L52.433 32.625L55.5172 31.7022C56.2794 31.4741 56.9198 30.9526 57.2975 30.2524C57.6753 29.5521 57.7593 28.7305 57.5313 27.9682V27.9676ZM28.345 37.7438L26.1423 37.3591L27.7718 35.8277L32.3358 34.4625L32.909 36.3785L28.345 37.7438ZM34.825 35.805L34.2518 33.889L50.2695 29.0964L50.3638 31.1559L34.825 35.805ZM55.5375 29.3021C55.4755 29.4179 55.3911 29.5202 55.2892 29.6032C55.1873 29.6862 55.07 29.7481 54.944 29.7855L52.3389 30.5649L52.2447 28.5055L54.3708 27.8694C54.5603 27.8127 54.7623 27.8134 54.9513 27.8716C55.1404 27.9297 55.3079 28.0426 55.4328 28.1959C55.5577 28.3493 55.6343 28.5362 55.6529 28.7331C55.6716 28.93 55.6314 29.128 55.5375 29.3021Z" fill="#FFBB45"/>
<path d="M37 42H20V27C20 26.7348 19.8946 26.4804 19.7071 26.2929C19.5196 26.1054 19.2652 26 19 26H1C0.734784 26 0.48043 26.1054 0.292893 26.2929C0.105357 26.4804 0 26.7348 0 27V59C0 59.2652 0.105357 59.5196 0.292893 59.7071C0.48043 59.8946 0.734784 60 1 60H37C37.2652 60 37.5196 59.8946 37.7071 59.7071C37.8946 59.5196 38 59.2652 38 59V43C38 42.7348 37.8946 42.4804 37.7071 42.2929C37.5196 42.1054 37.2652 42 37 42ZM26 44H30V48H26V44ZM8 28H12V32H8V28ZM2 28H6V33C6 33.2652 6.10536 33.5196 6.29289 33.7071C6.48043 33.8946 6.73478 34 7 34H13C13.2652 34 13.5196 33.8946 13.7071 33.7071C13.8946 33.5196 14 33.2652 14 33V28H18V42H2V28ZM8 44H12V48H8V44ZM2 44H6V49C6 49.2652 6.10536 49.5196 6.29289 49.7071C6.48043 49.8946 6.73478 50 7 50H13C13.2652 50 13.5196 49.8946 13.7071 49.7071C13.8946 49.5196 14 49.2652 14 49V44H18V58H2V44ZM36 58H20V44H24V49C24 49.2652 24.1054 49.5196 24.2929 49.7071C24.4804 49.8946 24.7348 50 25 50H31C31.2652 50 31.5196 49.8946 31.7071 49.7071C31.8946 49.5196 32 49.2652 32 49V44H36V58Z" fill="#32BF73"/>
<path d="M32 54H34V56H32V54Z" fill="#FFBB45"/>
<path d="M14 54H16V56H14V54Z" fill="#FFBB45"/>
<path d="M14 38H16V40H14V38Z" fill="#FFBB45"/>
<path d="M16 8C16.0006 7.46976 16.2115 6.96142 16.5865 6.58648C16.9614 6.21154 17.4698 6.00063 18 6H24V8H19C18.7348 8 18.4804 8.10536 18.2929 8.29289C18.1054 8.48043 18 8.73478 18 9V24H20V10H44V26H46V9C46 8.73478 45.8946 8.48043 45.7071 8.29289C45.5196 8.10536 45.2652 8 45 8H40V6H46C46.5302 6.00063 47.0386 6.21154 47.4135 6.58648C47.7885 6.96142 47.9994 7.46976 48 8V25H50V8C49.9988 6.9395 49.577 5.92278 48.8271 5.17289C48.0772 4.423 47.0605 4.00119 46 4H36.2808L36.9701 1.2425C37.007 1.09507 37.0097 0.941188 36.9782 0.792532C36.9467 0.643876 36.8817 0.504361 36.7882 0.384584C36.6947 0.264807 36.5751 0.167919 36.4385 0.10128C36.3019 0.0346411 36.152 4.01266e-06 36 0H28C27.848 4.01266e-06 27.6981 0.0346411 27.5615 0.10128C27.4249 0.167919 27.3053 0.264807 27.2118 0.384584C27.1183 0.504361 27.0533 0.643876 27.0218 0.792532C26.9903 0.941188 26.993 1.09507 27.0299 1.2425L27.7192 4H18C16.9395 4.00119 15.9228 4.423 15.1729 5.17289C14.423 5.92278 14.0012 6.9395 14 8V24H16V8ZM26 6H29C29.152 6 29.3019 5.96536 29.4385 5.89872C29.5751 5.83208 29.6947 5.73519 29.7882 5.61542C29.8817 5.49564 29.9467 5.35612 29.9782 5.20747C30.0097 5.05881 30.007 4.90493 29.9701 4.7575L29.2808 2H34.7192L34.0299 4.7575C33.993 4.90493 33.9903 5.05881 34.0218 5.20747C34.0533 5.35612 34.1183 5.49564 34.2118 5.61542C34.3053 5.73519 34.4249 5.83208 34.5615 5.89872C34.6981 5.96536 34.848 6 35 6H38V8H26V6Z" fill="#32BF73"/>
<path d="M48 49C47.9994 49.5302 47.7885 50.0386 47.4135 50.4135C47.0386 50.7885 46.5302 50.9994 46 51H40V53H46C47.0605 52.9988 48.0772 52.577 48.8271 51.8271C49.577 51.0772 49.9988 50.0605 50 49V40H48V49Z" fill="#32BF73"/>
<path d="M46 48V41H44V47H40V49H45C45.2652 49 45.5196 48.8946 45.7071 48.7071C45.8946 48.5196 46 48.2652 46 48Z" fill="#32BF73"/>
<path d="M28 13C28 12.7348 27.8946 12.4804 27.7071 12.2929C27.5196 12.1054 27.2652 12 27 12H23C22.7348 12 22.4804 12.1054 22.2929 12.2929C22.1054 12.4804 22 12.7348 22 13V17C22 17.2652 22.1054 17.5196 22.2929 17.7071C22.4804 17.8946 22.7348 18 23 18H27C27.2652 18 27.5196 17.8946 27.7071 17.7071C27.8946 17.5196 28 17.2652 28 17V13ZM26 16H24V14H26V16Z" fill="#FFBB45"/>
<path d="M27 21H23C22.7348 21 22.4804 21.1054 22.2929 21.2929C22.1054 21.4804 22 21.7348 22 22V26C22 26.2652 22.1054 26.5196 22.2929 26.7071C22.4804 26.8946 22.7348 27 23 27H27C27.2652 27 27.5196 26.8946 27.7071 26.7071C27.8946 26.5196 28 26.2652 28 26V22C28 21.7348 27.8946 21.4804 27.7071 21.2929C27.5196 21.1054 27.2652 21 27 21ZM26 25H24V23H26V25Z" fill="#FFBB45"/>
<path d="M30 12H32V14H30V12Z" fill="#32BF73"/>
<path d="M30 16H42V18H30V16Z" fill="#32BF73"/>
<path d="M34 12H42V14H34V12Z" fill="#32BF73"/>
<path d="M30 21H32V23H30V21Z" fill="#32BF73"/>
<path d="M30 25H42V27H30V25Z" fill="#32BF73"/>
<path d="M34 21H42V23H34V21Z" fill="#32BF73"/>
</svg>
