<svg width="62" height="44" viewBox="0 0 62 44" fill="none" xmlns="http://www.w3.org/2000/svg">
<path d="M58.5 0H17.5C16.5721 0.00102566 15.6824 0.370104 15.0263 1.02626C14.3701 1.68241 14.001 2.57206 14 3.5V12H3.5C2.57206 12.001 1.68241 12.3701 1.02626 13.0263C0.370104 13.6824 0.00102566 14.5721 0 15.5V40.5C0.00102566 41.4279 0.370104 42.3176 1.02626 42.9737C1.68241 43.6299 2.57206 43.999 3.5 44H44.5C45.4279 43.999 46.3176 43.6299 46.9737 42.9737C47.6299 42.3176 47.999 41.4279 48 40.5V32H58.5C59.4279 31.999 60.3176 31.6299 60.9737 30.9737C61.6299 30.3176 61.999 29.4279 62 28.5V3.5C61.999 2.57206 61.6299 1.68241 60.9737 1.02626C60.3176 0.370104 59.4279 0.00102566 58.5 0ZM46 40.5C45.9997 40.8977 45.8415 41.2791 45.5603 41.5603C45.2791 41.8415 44.8977 41.9997 44.5 42H3.5C3.10228 41.9997 2.72094 41.8415 2.43971 41.5603C2.15847 41.2791 2.00033 40.8977 2 40.5V25H46V40.5ZM46 23H2V19H46V23ZM46 17H2V15.5C2.00033 15.1023 2.15847 14.7209 2.43971 14.4397C2.72094 14.1585 3.10228 14.0003 3.5 14H44.5C44.8977 14.0003 45.2791 14.1585 45.5603 14.4397C45.8415 14.7209 45.9997 15.1023 46 15.5V17ZM60 28.5C59.9997 28.8977 59.8415 29.2791 59.5603 29.5603C59.2791 29.8415 58.8977 29.9997 58.5 30H48V15.5C47.999 14.5721 47.6299 13.6824 46.9737 13.0263C46.3176 12.3701 45.4279 12.001 44.5 12H16V3.5C16.0003 3.10228 16.1585 2.72094 16.4397 2.43971C16.7209 2.15847 17.1023 2.00033 17.5 2H58.5C58.8977 2.00033 59.2791 2.15847 59.5603 2.43971C59.8415 2.72094 59.9997 3.10228 60 3.5V28.5Z" fill="#32BF73"/>
<path d="M17 32H5C4.73478 32 4.48043 32.1054 4.29289 32.2929C4.10536 32.4804 4 32.7348 4 33V39C4 39.2652 4.10536 39.5196 4.29289 39.7071C4.48043 39.8946 4.73478 40 5 40H17C17.2652 40 17.5196 39.8946 17.7071 39.7071C17.8946 39.5196 18 39.2652 18 39V33C18 32.7348 17.8946 32.4804 17.7071 32.2929C17.5196 32.1054 17.2652 32 17 32ZM16 38H6V34H16V38Z" fill="#FFC807"/>
<path d="M43 32H32C31.7348 32 31.4804 32.1054 31.2929 32.2929C31.1054 32.4804 31 32.7348 31 33C31 33.2652 31.1054 33.5196 31.2929 33.7071C31.4804 33.8946 31.7348 34 32 34H43C43.2652 34 43.5196 33.8946 43.7071 33.7071C43.8946 33.5196 44 33.2652 44 33C44 32.7348 43.8946 32.4804 43.7071 32.2929C43.5196 32.1054 43.2652 32 43 32Z" fill="#FFC807"/>
<path d="M43 35H32C31.7348 35 31.4804 35.1054 31.2929 35.2929C31.1054 35.4804 31 35.7348 31 36C31 36.2652 31.1054 36.5196 31.2929 36.7071C31.4804 36.8946 31.7348 37 32 37H43C43.2652 37 43.5196 36.8946 43.7071 36.7071C43.8946 36.5196 44 36.2652 44 36C44 35.7348 43.8946 35.4804 43.7071 35.2929C43.5196 35.1054 43.2652 35 43 35Z" fill="#FFC807"/>
<path d="M43 38H37C36.7348 38 36.4804 38.1054 36.2929 38.2929C36.1054 38.4804 36 38.7348 36 39C36 39.2652 36.1054 39.5196 36.2929 39.7071C36.4804 39.8946 36.7348 40 37 40H43C43.2652 40 43.5196 39.8946 43.7071 39.7071C43.8946 39.5196 44 39.2652 44 39C44 38.7348 43.8946 38.4804 43.7071 38.2929C43.5196 38.1054 43.2652 38 43 38Z" fill="#FFC807"/>
</svg>
