<svg width="60" height="62" viewBox="0 0 60 62" fill="none" xmlns="http://www.w3.org/2000/svg">
<path d="M22 57H14C13.7348 57 13.4804 57.1054 13.2929 57.2929C13.1054 57.4804 13 57.7348 13 58C13 58.2652 13.1054 58.5196 13.2929 58.7071C13.4804 58.8946 13.7348 59 14 59H22C22.2652 59 22.5196 58.8946 22.7071 58.7071C22.8946 58.5196 23 58.2652 23 58C23 57.7348 22.8946 57.4804 22.7071 57.2929C22.5196 57.1054 22.2652 57 22 57Z" fill="#FFAC1B"/>
<path d="M56.5 19H36V3.5C35.999 2.57206 35.6299 1.68241 34.9737 1.02626C34.3176 0.370104 33.4279 0.00102566 32.5 0H3.5C2.57206 0.00102566 1.68241 0.370104 1.02626 1.02626C0.370104 1.68241 0.00102566 2.57206 0 3.5V58.5C0.00102566 59.4279 0.370104 60.3176 1.02626 60.9737C1.68241 61.6299 2.57206 61.999 3.5 62H32.5C33.4279 61.999 34.3176 61.6299 34.9737 60.9737C35.6299 60.3176 35.999 59.4279 36 58.5V44H56.5C57.4279 43.999 58.3176 43.6299 58.9737 42.9737C59.6299 42.3176 59.999 41.4279 60 40.5V22.5C59.999 21.5721 59.6299 20.6824 58.9737 20.0263C58.3176 19.3701 57.4279 19.001 56.5 19ZM22.7188 2L22.2188 4H13.7812L13.2812 2H22.7188ZM34 58.5C33.9997 58.8977 33.8415 59.2791 33.5603 59.5603C33.2791 59.8415 32.8977 59.9997 32.5 60H3.5C3.10228 59.9997 2.72094 59.8415 2.43971 59.5603C2.15847 59.2791 2.00033 58.8977 2 58.5V3.5C2.00033 3.10228 2.15847 2.72094 2.43971 2.43971C2.72094 2.15847 3.10228 2.00033 3.5 2H11.2188L12.03 5.2425C12.0841 5.45884 12.2089 5.6509 12.3847 5.78815C12.5604 5.9254 12.777 5.99997 13 6H23C23.223 5.99997 23.4396 5.9254 23.6153 5.78815C23.7911 5.6509 23.9159 5.45884 23.97 5.2425L24.7812 2H32.5C32.8977 2.00033 33.2791 2.15847 33.5603 2.43971C33.8415 2.72094 33.9997 3.10228 34 3.5V58.5ZM36 34H39V38H36V34ZM58 40.5C57.9997 40.8977 57.8415 41.2791 57.5603 41.5603C57.2791 41.8415 56.8977 41.9997 56.5 42H36V40H40C40.2652 40 40.5196 39.8946 40.7071 39.7071C40.8946 39.5196 41 39.2652 41 39V33C41 32.7348 40.8946 32.4804 40.7071 32.2929C40.5196 32.1054 40.2652 32 40 32H36V29H58V40.5ZM58 27H36V25H58V27ZM58 23H36V21H56.5C56.8977 21.0003 57.2791 21.1585 57.5603 21.4397C57.8415 21.7209 57.9997 22.1023 58 22.5V23Z" fill="#32BF73"/>
<path d="M55 32H46C45.7348 32 45.4804 32.1054 45.2929 32.2929C45.1054 32.4804 45 32.7348 45 33C45 33.2652 45.1054 33.5196 45.2929 33.7071C45.4804 33.8946 45.7348 34 46 34H55C55.2652 34 55.5196 33.8946 55.7071 33.7071C55.8946 33.5196 56 33.2652 56 33C56 32.7348 55.8946 32.4804 55.7071 32.2929C55.5196 32.1054 55.2652 32 55 32Z" fill="#FFAC1B"/>
<path d="M55 35H46C45.7348 35 45.4804 35.1054 45.2929 35.2929C45.1054 35.4804 45 35.7348 45 36C45 36.2652 45.1054 36.5196 45.2929 36.7071C45.4804 36.8946 45.7348 37 46 37H55C55.2652 37 55.5196 36.8946 55.7071 36.7071C55.8946 36.5196 56 36.2652 56 36C56 35.7348 55.8946 35.4804 55.7071 35.2929C55.5196 35.1054 55.2652 35 55 35Z" fill="#FFAC1B"/>
<path d="M55 38H51C50.7348 38 50.4804 38.1054 50.2929 38.2929C50.1054 38.4804 50 38.7348 50 39C50 39.2652 50.1054 39.5196 50.2929 39.7071C50.4804 39.8946 50.7348 40 51 40H55C55.2652 40 55.5196 39.8946 55.7071 39.7071C55.8946 39.5196 56 39.2652 56 39C56 38.7348 55.8946 38.4804 55.7071 38.2929C55.5196 38.1054 55.2652 38 55 38Z" fill="#FFAC1B"/>
<path d="M18 19C15.6266 19 13.3066 19.7038 11.3332 21.0224C9.35977 22.3409 7.8217 24.2151 6.91345 26.4078C6.0052 28.6005 5.76756 31.0133 6.23058 33.3411C6.6936 35.6688 7.83649 37.807 9.51472 39.4853C11.193 41.1635 13.3312 42.3064 15.6589 42.7694C17.9867 43.2324 20.3995 42.9948 22.5922 42.0865C24.7849 41.1783 26.6591 39.6402 27.9776 37.6668C29.2962 35.6934 30 33.3734 30 31C29.9964 27.8185 28.731 24.7683 26.4813 22.5187C24.2317 20.269 21.1815 19.0036 18 19ZM18 41C16.0222 41 14.0888 40.4135 12.4443 39.3147C10.7998 38.2159 9.51809 36.6541 8.76121 34.8268C8.00433 32.9996 7.8063 30.9889 8.19215 29.0491C8.578 27.1093 9.53041 25.3275 10.9289 23.9289C12.3275 22.5304 14.1093 21.578 16.0491 21.1921C17.9889 20.8063 19.9996 21.0043 21.8268 21.7612C23.6541 22.5181 25.2159 23.7998 26.3147 25.4443C27.4135 27.0888 28 29.0222 28 31C27.997 33.6512 26.9425 36.193 25.0677 38.0677C23.193 39.9424 20.6512 40.997 18 41Z" fill="#FFAC1B"/>
<path d="M23.2929 27.2929L16.9061 33.6797L13.6 31.2C13.3878 31.0409 13.1211 30.9726 12.8586 31.0101C12.596 31.0476 12.3591 31.1879 12.2 31.4C12.0409 31.6122 11.9725 31.8789 12.0101 32.1415C12.0476 32.404 12.1878 32.6409 12.4 32.8L16.4 35.8C16.5926 35.9445 16.8308 36.0146 17.0709 35.9975C17.311 35.9805 17.5369 35.8774 17.7071 35.7072L24.7071 28.7072C24.8947 28.5196 25 28.2653 25 28C25 27.7348 24.8947 27.4804 24.7071 27.2929C24.5196 27.1054 24.2652 27 24 27C23.7348 27 23.4804 27.1054 23.2929 27.2929Z" fill="#FFAC1B"/>
</svg>
