<svg width="64" height="64" viewBox="0 0 64 64" fill="none" xmlns="http://www.w3.org/2000/svg">
<path d="M60.0972 6.94825C59.4361 6.22388 58.4919 5.80837 57.5066 5.80837H50.4819L50.7778 0.9945C50.7937 0.7365 50.7013 0.483375 50.5225 0.295C50.3438 0.10675 50.0945 0 49.8338 0H14.1663C13.9055 0 13.6562 0.10675 13.4775 0.295C13.2987 0.48325 13.2064 0.736375 13.2223 0.9945L13.5182 5.80837H6.49344C5.50831 5.80837 4.56391 6.22388 3.90287 6.94825C3.24183 7.6725 2.919 8.64488 3.01736 9.61588L5.05559 29.819C5.23454 31.5969 6.729 32.9375 8.53154 32.9375H15.1867C15.5412 38.5914 20.1771 43.049 25.8408 43.2801L24.7907 52.0234H21.2505C19.6445 52.0234 18.2508 53.102 17.8613 54.6464L17.249 57.0737H14.1663C12.9426 57.0737 11.9468 58.0613 11.9468 59.275V61.8C11.9468 63.0131 12.9426 64 14.1663 64H49.8338C51.0575 64 52.0532 63.013 52.0532 61.8V59.275C52.0532 58.0613 51.0575 57.0737 49.8338 57.0737H46.7509L46.1386 54.6465C45.7491 53.1021 44.3554 52.0235 42.7494 52.0235H39.2092L38.1591 43.2803C43.8228 43.0491 48.4587 38.5915 48.8132 32.9376H55.4684C57.271 32.9376 58.7655 31.597 58.9443 29.8193L60.9827 9.61625C61.0809 8.64488 60.7582 7.6725 60.0972 6.94825ZM48.8286 1.875L48.6954 4.04063H15.3046L15.1715 1.875H48.8286ZM6.93783 29.6326L4.8996 9.42912C4.85395 8.9775 4.99796 8.54325 5.30566 8.20625C5.61323 7.86913 6.03518 7.68337 6.49357 7.68337H13.6336L13.7668 9.84875H8.16244C7.89522 9.84875 7.64049 9.96075 7.46117 10.1571C7.28185 10.3535 7.19471 10.6159 7.22132 10.8795L8.29321 21.5058C8.34201 21.9893 8.75311 22.35 9.23319 22.35C9.26459 22.35 9.29637 22.3485 9.3284 22.3452C9.8482 22.2938 10.2274 21.8344 10.1754 21.3191L9.20747 11.7238H13.882L14.8228 27.0212H10.7512L10.6156 25.672C10.5637 25.1566 10.0994 24.7802 9.58061 24.8321C9.06081 24.8835 8.68148 25.3427 8.73331 25.858L8.954 28.0518C9.00217 28.5311 9.40911 28.8962 9.89512 28.8962H14.938L15.0712 31.0625H8.53154C7.70505 31.0625 7.0198 30.4479 6.93783 29.6326ZM44.3034 55.1012L44.8009 57.0737H25.6305C25.108 57.0737 24.6847 57.4935 24.6847 58.0112C24.6847 58.529 25.108 58.9487 25.6305 58.9487H49.8338C50.0146 58.9487 50.1616 59.0951 50.1616 59.275V61.8C50.1616 61.9792 50.0146 62.125 49.8338 62.125H14.1663C13.9854 62.125 13.8384 61.9791 13.8384 61.8V59.275C13.8384 59.0951 13.9854 58.9487 14.1663 58.9487H21.2168C21.7393 58.9487 22.1626 58.529 22.1626 58.0112C22.1626 57.4935 21.7393 57.0737 21.2168 57.0737H19.199L19.6966 55.1011C19.8752 54.3929 20.5141 53.8984 21.2506 53.8984H42.7494C43.4859 53.8984 44.1249 54.393 44.3034 55.1012ZM26.6958 52.0234L27.7445 43.2912H36.2555L37.3042 52.0234H26.6958ZM37.6974 41.4162H26.3026C21.4244 41.4162 17.3706 37.6361 17.0738 32.8104L15.4199 5.91563H48.5803L48.0347 14.7917C48.003 15.3085 48.3999 15.753 48.9213 15.7845C49.4427 15.8161 49.8911 15.4225 49.9228 14.9058L50.1184 11.724H54.7927L53.2495 27.0217H49.1775L49.6543 19.272C49.6861 18.7552 49.2891 18.3108 48.7678 18.2791C48.2447 18.2484 47.7982 18.6411 47.7663 19.1579L46.9264 32.8104C46.6294 37.6361 42.5755 41.4162 37.6974 41.4162ZM59.1004 9.42937L57.0622 29.6327C56.9802 30.4479 56.295 31.0625 55.4684 31.0625H48.9288L49.062 28.8969H54.1053C54.5913 28.8969 54.998 28.5319 55.0464 28.0526L56.7787 10.8799C56.8053 10.6164 56.7182 10.3539 56.5389 10.1575C56.3595 9.96113 56.1049 9.84912 55.8376 9.84912H50.2334L50.3665 7.6835H57.5065C57.9649 7.6835 58.3867 7.86913 58.6944 8.20638C59.0021 8.54313 59.1462 8.97738 59.1004 9.42937Z" fill="#32BF73"/>
<path d="M26.0255 27.7755V19.215L24 20.4571V18.2122L26.0255 17H28.111V27.7755H26.0255Z" fill="#FFBB45"/>
<path d="M34.1741 28C33.6289 28 33.1163 27.8878 32.6362 27.6633C32.161 27.4388 31.7509 27.127 31.4059 26.7279C31.0608 26.3288 30.8132 25.8649 30.6632 25.3361L32.6287 24.8122C32.6937 25.0667 32.8087 25.2862 32.9738 25.4707C33.1438 25.6553 33.3388 25.8 33.5589 25.9048C33.784 26.0045 34.014 26.0544 34.2491 26.0544C34.5591 26.0544 34.8417 25.9796 35.0968 25.8299C35.3568 25.6803 35.5619 25.4782 35.7119 25.2238C35.867 24.9694 35.9445 24.6875 35.9445 24.3782C35.9445 24.0689 35.867 23.7871 35.7119 23.5327C35.5619 23.2782 35.3568 23.0762 35.0968 22.9265C34.8417 22.7769 34.5591 22.702 34.2491 22.702C33.869 22.702 33.5589 22.7669 33.3188 22.8966C33.0788 23.0213 32.8987 23.141 32.7787 23.2558L31.0533 22.732L31.3834 17H37.2798V18.9007H32.5086L33.2288 18.2272L33.0038 21.9238L32.6587 21.5048C32.9287 21.2853 33.2363 21.1256 33.5814 21.0259C33.9265 20.9261 34.2491 20.8762 34.5491 20.8762C35.2293 20.8762 35.827 21.0283 36.3421 21.3327C36.8622 21.632 37.2673 22.046 37.5574 22.5748C37.8525 23.0986 38 23.6998 38 24.3782C38 25.0567 37.8225 25.6703 37.4674 26.219C37.1123 26.7628 36.6447 27.1968 36.0645 27.5211C35.4844 27.8404 34.8542 28 34.1741 28Z" fill="#FFBB45"/>
</svg>
