<svg width="64" height="64" viewBox="0 0 64 64" fill="none" xmlns="http://www.w3.org/2000/svg">
<path fill-rule="evenodd" clip-rule="evenodd" d="M32.5 17H45.2832C45.8263 17 46.2665 16.5524 46.2665 16.0001C46.2665 15.4478 45.8263 15.0001 45.2832 15.0001H32.5C31.9569 15.0001 31.5167 15.4479 31.5167 16.0001C31.5167 16.5523 31.9569 17 32.5 17Z" fill="#FFBB45"/>
<path fill-rule="evenodd" clip-rule="evenodd" d="M36.4333 20C36.4333 20.5523 36.8735 21 37.4166 21H50.1999C50.743 21 51.1832 20.5522 51.1832 20C51.1832 19.4478 50.7429 19 50.1999 19H37.4167C36.8736 19 36.4333 19.4477 36.4333 20Z" fill="#FFBB45"/>
<path fill-rule="evenodd" clip-rule="evenodd" d="M49.2166 29.9999C49.2166 29.4476 48.7764 29 48.2333 29H30.5333C29.9902 29 29.55 29.4477 29.55 29.9999C29.55 30.5522 29.9904 30.9999 30.5333 30.9999H48.2333C48.7763 31 49.2166 30.5522 49.2166 29.9999Z" fill="#FFBB45"/>
<path fill-rule="evenodd" clip-rule="evenodd" d="M35.4499 33C34.9068 33 34.4666 33.4476 34.4666 33.9999C34.4666 34.5522 34.9068 34.9999 35.4499 34.9999H53.1499C53.693 34.9999 54.1332 34.5522 54.1332 33.9999C54.1332 33.4476 53.6929 33 53.1499 33H35.4499Z" fill="#FFBB45"/>
<path fill-rule="evenodd" clip-rule="evenodd" d="M52.1666 43.9999C52.1666 43.4476 51.7264 43 51.1833 43H27.5834C27.0403 43 26.6001 43.4476 26.6001 43.9999C26.6001 44.5522 27.0403 44.9999 27.5834 44.9999H51.1833C51.7263 44.9999 52.1666 44.5522 52.1666 43.9999Z" fill="#FFBB45"/>
<path fill-rule="evenodd" clip-rule="evenodd" d="M56.0999 46.9999H32.5C31.9569 46.9999 31.5167 47.4476 31.5167 47.9999C31.5167 48.5522 31.957 48.9998 32.5 48.9998H56.0999C56.643 48.9998 57.0832 48.5522 57.0832 47.9999C57.0832 47.4476 56.643 46.9999 56.0999 46.9999Z" fill="#FFBB45"/>
<path d="M60.0332 38H59.0499V26C59.0499 24.8954 58.1694 24 57.0832 24H55.1165V12C55.1165 10.8954 54.236 10 53.1498 10H11.85C10.7638 10 9.88328 10.8954 9.88328 12V24H7.9167C6.8305 24 5.94999 24.8954 5.94999 26V38H4.9667C3.8805 38 3 38.8954 3 40V52C3 53.1046 3.8805 54 4.9667 54H60.0333C61.1195 54 62 53.1046 62 52V40C61.9999 38.8954 61.1194 38 60.0332 38ZM57.0832 26V38H25.6167V26H57.0832ZM4.9667 45.0219C7.26873 43.7754 9.29835 42.067 10.9326 40H14.2878C11.9173 43.3315 8.69326 45.9374 4.96682 47.534L4.9667 45.0219ZM17.8159 12H21.171C18.8006 15.3315 15.5764 17.9375 11.85 19.534V17.022C14.152 15.7754 16.1816 14.0671 17.8159 12ZM11.85 21.714C17.0725 19.491 21.1533 16.0771 23.4671 12H26.5253C23.8182 17.021 18.5731 21.187 11.8501 23.635L11.85 21.714ZM27.5832 24H23.8465C25.1633 23.0954 26.4124 22.0927 27.5832 21V24ZM12.1695 38C16.8238 35.8446 20.7983 32.4173 23.65 28.1V32.1639C21.4787 34.4855 18.9695 36.4538 16.2101 38H12.1695ZM16.1029 24C20.7572 21.8446 24.7317 18.4173 27.5834 14.1V18.164C25.4121 20.4855 22.9029 22.4538 20.1435 24H16.1029ZM13.8825 26H17.2376C14.8672 29.3315 11.6431 31.9374 7.9167 33.534V31.022C10.2187 29.7754 12.2482 28.067 13.8825 26ZM7.9167 35.714C13.1392 33.491 17.22 30.0771 19.5338 26H22.592C19.8849 31.021 14.6398 35.187 7.91681 37.6349L7.9167 35.714ZM4.9667 49.7139C10.1892 47.4908 14.27 44.077 16.5838 39.9999H19.642C16.9349 45.0209 11.6898 49.1869 4.96682 51.6348L4.9667 49.7139ZM20.7 42.1V46.1641C18.5287 48.4856 16.0195 50.4539 13.2601 52.0001H9.21953C13.8738 49.8444 17.8483 46.4172 20.7 42.1ZM19.9133 38C21.23 37.0954 22.4791 36.0926 23.65 35V38H19.9133ZM53.1499 12V24H29.5499V12H53.1499ZM15.21 12C14.2019 13.0383 13.0737 13.9483 11.85 14.71V12H15.21ZM11.2767 26C10.2686 27.0383 9.14037 27.9483 7.9167 28.71V26H11.2767ZM8.3267 40C7.31863 41.0383 6.19037 41.9482 4.9667 42.71V40H8.3267ZM16.9633 52C18.28 51.0954 19.5291 50.0926 20.7 49V52H16.9633ZM60.0332 52H22.6667V40H60.0333L60.0332 52Z" fill="#32BF73"/>
</svg>
