<svg width="200" height="97" viewBox="0 0 200 97" fill="none" xmlns="http://www.w3.org/2000/svg">
<path d="M47.0057 18.9016L46.8834 19.894L47.0057 18.9016ZM14.2357 96.9615C14.7667 97.1132 15.3202 96.8057 15.4719 96.2747L17.9442 87.6209C18.0959 87.0899 17.7884 86.5364 17.2573 86.3847C16.7263 86.233 16.1728 86.5405 16.0211 87.0715L13.8235 94.7638L6.13128 92.5662C5.60024 92.4145 5.04676 92.722 4.89505 93.253C4.74334 93.784 5.05084 94.3375 5.58188 94.4892L14.2357 96.9615ZM13.0574 91.084C12.8116 90.5894 12.2114 90.3878 11.7168 90.6336C11.2223 90.8794 11.0206 91.4795 11.2664 91.9741L13.0574 91.084ZM8.67783 86.4169C8.89852 86.9232 9.48784 87.1547 9.99411 86.934C10.5004 86.7133 10.7319 86.124 10.5112 85.6177L8.67783 86.4169ZM6.8786 76.247C6.70086 75.7241 6.13288 75.4443 5.60998 75.622C5.08708 75.7998 4.80726 76.3677 4.985 76.8906L6.8786 76.247ZM3.16813 71.0298C3.31682 71.5617 3.86854 71.8724 4.40043 71.7237C4.93232 71.575 5.24297 71.0233 5.09428 70.4914L3.16813 71.0298ZM2.90925 60.7177C2.82 60.1727 2.30581 59.8032 1.76079 59.8925C1.21576 59.9817 0.846285 60.4959 0.935537 61.0409L2.90925 60.7177ZM0.187997 54.9214C0.230968 55.472 0.712161 55.8835 1.26277 55.8405C1.81338 55.7976 2.2249 55.3164 2.18193 54.7658L0.187997 54.9214ZM2.2971 44.8438C2.36029 44.2951 1.96674 43.7991 1.41808 43.7359C0.869419 43.6727 0.373419 44.0663 0.310231 44.6149L2.2971 44.8438ZM1.50195 38.495C1.35102 39.0262 1.65933 39.5793 2.19059 39.7302C2.72185 39.8811 3.27488 39.5728 3.42581 39.0416L1.50195 38.495ZM7.64739 30.3006C7.97799 29.8582 7.88735 29.2315 7.44495 28.9009C7.00254 28.5703 6.3759 28.661 6.0453 29.1034L7.64739 30.3006ZM10.417 24.5586C9.98801 24.9064 9.92218 25.5362 10.27 25.9652C10.6178 26.3942 11.2475 26.46 11.6765 26.1122L10.417 24.5586ZM20.2286 21.4891C20.751 21.3099 21.0293 20.7411 20.8501 20.2187C20.6709 19.6963 20.1021 19.4181 19.5797 19.5973L20.2286 21.4891ZM25.5998 18.0517C25.0564 18.15 24.6955 18.6703 24.7938 19.2137C24.8921 19.7572 25.4124 20.1181 25.9559 20.0197L25.5998 18.0517ZM35.8877 19.1834C36.44 19.1821 36.8866 18.7333 36.8853 18.181C36.8839 17.6287 36.4351 17.1821 35.8828 17.1834L35.8877 19.1834ZM42.0128 17.4057C41.462 17.366 40.9832 17.7803 40.9435 18.3312C40.9037 18.882 41.3181 19.3608 41.8689 19.4005L42.0128 17.4057ZM52.0198 20.5754C52.5667 20.6521 53.0723 20.2708 53.1489 19.7239C53.2256 19.177 52.8443 18.6714 52.2974 18.5948L52.0198 20.5754ZM58.5232 19.5017C57.977 19.4198 57.4679 19.7963 57.3861 20.3424C57.3042 20.8886 57.6807 21.3977 58.2269 21.4796L58.5232 19.5017ZM68.5851 23.06C69.1309 23.1438 69.6414 22.7692 69.7252 22.2233C69.809 21.6774 69.4343 21.167 68.8885 21.0832L68.5851 23.06ZM75.1088 22.0327C74.5628 21.95 74.0531 22.3257 73.9704 22.8717C73.8877 23.4178 74.2634 23.9275 74.8094 24.0101L75.1088 22.0327ZM85.1745 25.5417C85.7212 25.62 86.2279 25.2403 86.3062 24.6936C86.3846 24.1469 86.0049 23.6402 85.4582 23.5619L85.1745 25.5417ZM91.6783 24.4314C91.1311 24.3569 90.6271 24.7402 90.5526 25.2874C90.4782 25.8347 90.8614 26.3387 91.4087 26.4131L91.6783 24.4314ZM101.819 27.752C102.367 27.818 102.865 27.4271 102.931 26.8788C102.997 26.3304 102.606 25.8324 102.058 25.7664L101.819 27.752ZM108.292 26.482C107.743 26.4222 107.25 26.8189 107.19 27.3679C107.13 27.917 107.527 28.4105 108.076 28.4703L108.292 26.482ZM118.524 29.4898C119.074 29.5368 119.559 29.1288 119.606 28.5785C119.653 28.0282 119.245 27.544 118.694 27.497L118.524 29.4898ZM124.944 27.9786C124.393 27.9409 123.915 28.3571 123.878 28.9081C123.84 29.4591 124.256 29.9363 124.807 29.9739L124.944 27.9786ZM135.31 30.5166C135.862 30.5352 136.325 30.1027 136.343 29.5507C136.362 28.9988 135.929 28.5363 135.377 28.5178L135.31 30.5166ZM141.637 28.6495C141.085 28.6451 140.633 29.0894 140.629 29.6416C140.625 30.1939 141.069 30.6451 141.621 30.6494L141.637 28.6495ZM152.149 30.4593C152.701 30.4335 153.127 29.9653 153.101 29.4137C153.075 28.862 152.607 28.4357 152.055 28.4615L152.149 30.4593ZM158.287 28.0417C157.737 28.091 157.331 28.5768 157.38 29.1269C157.429 29.677 157.915 30.083 158.465 30.0337L158.287 28.0417ZM168.938 28.6177C169.481 28.5156 169.838 27.9928 169.736 27.45C169.634 26.9072 169.111 26.5501 168.568 26.6522L168.938 28.6177ZM174.613 25.2681C174.081 25.4144 173.768 25.9647 173.914 26.4973C174.06 27.0298 174.611 27.3429 175.143 27.1966L174.613 25.2681ZM185.092 23.4216C185.583 23.1688 185.776 22.5659 185.524 22.0748C185.271 21.5838 184.668 21.3906 184.177 21.6434L185.092 23.4216ZM189.324 18.3729C188.89 18.7147 188.816 19.3435 189.157 19.7773C189.499 20.2111 190.128 20.2857 190.562 19.9439L189.324 18.3729ZM197.451 11.6182C197.697 11.1235 197.495 10.5234 197 10.2779C196.505 10.0324 195.905 10.2345 195.66 10.7292L197.451 11.6182ZM197.546 5.0483C197.443 5.59093 197.799 6.11418 198.342 6.21703C198.884 6.31988 199.408 5.96337 199.511 5.42075L197.546 5.0483ZM15.3845 95.5143C14.6065 94.114 13.8271 92.6329 13.0574 91.084L11.2664 91.9741C12.0493 93.5495 12.8429 95.0578 13.6362 96.4857L15.3845 95.5143ZM10.5112 85.6177C9.21019 82.633 7.9792 79.4849 6.8786 76.247L4.985 76.8906C6.10451 80.1842 7.35587 83.3842 8.67783 86.4169L10.5112 85.6177ZM5.09428 70.4914C4.18876 67.2522 3.44211 63.9717 2.90925 60.7177L0.935537 61.0409C1.48173 64.3763 2.24538 67.729 3.16813 71.0298L5.09428 70.4914ZM2.18193 54.7658C1.91499 51.3452 1.93231 48.0112 2.2971 44.8438L0.310231 44.6149C-0.0717195 47.9313 -0.0871183 51.3962 0.187997 54.9214L2.18193 54.7658ZM3.42581 39.0416C4.33933 35.8262 5.71948 32.8805 7.64739 30.3006L6.0453 29.1034C3.95202 31.9046 2.47271 35.0782 1.50195 38.495L3.42581 39.0416ZM11.6765 26.1122C14.0057 24.2239 16.831 22.6545 20.2286 21.4891L19.5797 19.5973C15.9796 20.8321 12.9436 22.5103 10.417 24.5586L11.6765 26.1122ZM25.9559 20.0197C28.9221 19.4831 32.2231 19.1924 35.8877 19.1834L35.8828 17.1834C32.1163 17.1926 28.6966 17.4914 25.5998 18.0517L25.9559 20.0197ZM41.8689 19.4005C43.4804 19.5168 45.1513 19.6806 46.8834 19.894L47.128 17.9091C45.3643 17.6917 43.6597 17.5245 42.0128 17.4057L41.8689 19.4005ZM46.8834 19.894C48.4847 20.0914 50.2005 20.3205 52.0198 20.5754L52.2974 18.5948C50.4704 18.3387 48.7432 18.1081 47.128 17.9091L46.8834 19.894ZM58.2269 21.4796C61.4664 21.9649 64.9336 22.4996 68.5851 23.06L68.8885 21.0832C65.2394 20.5231 61.7673 19.9877 58.5232 19.5017L58.2269 21.4796ZM74.8094 24.0101C78.1565 24.5169 81.6221 25.0328 85.1745 25.5417L85.4582 23.5619C81.9127 23.054 78.4526 22.5389 75.1088 22.0327L74.8094 24.0101ZM91.4087 26.4131C94.8267 26.8781 98.3054 27.3289 101.819 27.752L102.058 25.7664C98.5562 25.3446 95.0878 24.8952 91.6783 24.4314L91.4087 26.4131ZM108.076 28.4703C111.548 28.8482 115.039 29.1922 118.524 29.4898L118.694 27.497C115.226 27.201 111.751 26.8585 108.292 26.482L108.076 28.4703ZM124.807 29.9739C128.337 30.2151 131.847 30.4004 135.31 30.5166L135.377 28.5178C131.94 28.4024 128.453 28.2184 124.944 27.9786L124.807 29.9739ZM141.621 30.6494C145.208 30.6774 148.728 30.6193 152.149 30.4593L152.055 28.4615C148.675 28.6196 145.193 28.6772 141.637 28.6495L141.621 30.6494ZM158.465 30.0337C162.112 29.7073 165.617 29.2427 168.938 28.6177L168.568 26.6522C165.321 27.2634 161.88 27.72 158.287 28.0417L158.465 30.0337ZM175.143 27.1966C178.771 26.2 182.113 24.9553 185.092 23.4216L184.177 21.6434C181.344 23.1014 178.137 24.3001 174.613 25.2681L175.143 27.1966ZM190.562 19.9439C193.488 17.6385 195.831 14.8838 197.451 11.6182L195.66 10.7292C194.186 13.6992 192.045 16.229 189.324 18.3729L190.562 19.9439ZM199.511 5.42075C199.834 3.71283 200 1.90712 200 0H198C198 1.79101 197.844 3.47158 197.546 5.0483L199.511 5.42075Z" fill="#27A360"/>
</svg>
